<svg id="svg-element" xmlns="http://www.w3.org/2000/svg" width="512" height="512"><path d="M 419.0,15.5 L 418.0,15.5 L 417.5,15.0 L 417.0,14.5 L 416.5,14.0 L 416.0,13.5 L 415.0,13.5 L 414.0,13.5 L 413.0,13.5 L 412.0,13.5 L 411.0,13.5 L 410.0,13.5 L 409.0,13.5 L 408.0,13.5 L 407.0,13.5 L 406.0,13.5 L 405.0,13.5 L 404.0,13.5 L 403.0,13.5 L 402.0,13.5 L 401.0,13.5 L 400.0,13.5 L 399.0,13.5 L 398.5,14.0 L 398.0,14.5 L 397.5,15.0 L 397.0,15.5 L 396.0,15.5 L 395.5,15.0 L 396.0,14.5 L 396.5,14.0 L 397.0,13.5 L 397.5,13.0 L 398.0,12.5 L 399.0,12.5 L 400.0,12.5 L 401.0,12.5 L 402.0,12.5 L 403.0,12.5 L 404.0,12.5 L 405.0,12.5 L 406.0,12.5 L 407.0,12.5 L 408.0,12.5 L 409.0,12.5 L 410.0,12.5 L 411.0,12.5 L 412.0,12.5 L 413.0,12.5 L 414.0,12.5 L 415.0,12.5 L 416.0,12.5 L 417.0,12.5 L 417.5,13.0 L 418.0,13.5 L 418.5,14.0 L 419.0,14.5 L 419.5,15.0 L 419.0,15.5 Z" stroke="black" fill="none" /><path d="M 390.0,19.5 L 389.0,19.5 L 388.5,19.0 L 389.0,18.5 L 389.5,18.0 L 390.0,17.5 L 391.0,17.5 L 391.5,17.0 L 392.0,16.5 L 392.5,16.0 L 393.0,15.5 L 394.0,15.5 L 395.0,15.5 L 395.5,16.0 L 395.0,16.5 L 394.0,16.5 L 393.5,17.0 L 393.0,17.5 L 392.5,18.0 L 392.0,18.5 L 391.0,18.5 L 390.5,19.0 L 390.0,19.5 Z" stroke="black" fill="none" /><path d="M 430.0,18.5 L 429.0,18.5 L 428.0,18.5 L 427.5,18.0 L 427.0,17.5 L 426.0,17.5 L 425.5,17.0 L 425.0,16.5 L 424.0,16.5 L 423.0,16.5 L 422.0,16.5 L 421.0,16.5 L 420.0,16.5 L 419.5,16.0 L 420.0,15.5 L 421.0,15.5 L 422.0,15.5 L 423.0,15.5 L 424.0,15.5 L 425.0,15.5 L 426.0,15.5 L 426.5,16.0 L 427.0,16.5 L 428.0,16.5 L 428.5,17.0 L 429.0,17.5 L 430.0,17.5 L 430.5,18.0 L 430.0,18.5 Z" stroke="black" fill="none" /><path d="M 433.0,19.5 L 432.0,19.5 L 431.0,19.5 L 430.5,19.0 L 431.0,18.5 L 432.0,18.5 L 433.0,18.5 L 433.5,19.0 L 433.0,19.5 Z" stroke="black" fill="none" /><path d="M 388.0,20.5 L 387.5,20.0 L 388.0,19.5 L 388.5,20.0 L 388.0,20.5 Z" stroke="black" fill="none" /><path d="M 437.0,21.5 L 436.0,21.5 L 435.0,21.5 L 434.5,21.0 L 434.0,20.5 L 433.5,20.0 L 434.0,19.5 L 435.0,19.5 L 435.5,20.0 L 436.0,20.5 L 437.0,20.5 L 437.5,21.0 L 437.0,21.5 Z" stroke="black" fill="none" /><path d="M 382.0,26.5 L 381.5,26.0 L 381.5,25.0 L 382.0,24.5 L 383.0,24.5 L 383.5,24.0 L 384.0,23.5 L 384.5,23.0 L 385.0,22.5 L 385.5,22.0 L 386.0,21.5 L 386.5,21.0 L 387.0,20.5 L 387.5,21.0 L 387.5,22.0 L 387.0,22.5 L 386.5,23.0 L 386.0,23.5 L 385.5,24.0 L 385.0,24.5 L 384.5,25.0 L 384.0,25.5 L 383.0,25.5 L 382.5,26.0 L 382.0,26.5 Z" stroke="black" fill="none" /><path d="M 445.0,23.5 L 444.0,23.5 L 443.5,23.0 L 443.0,22.5 L 442.0,22.5 L 441.0,22.5 L 440.0,22.5 L 439.0,22.5 L 438.0,22.5 L 437.5,22.0 L 438.0,21.5 L 439.0,21.5 L 440.0,21.5 L 441.0,21.5 L 442.0,21.5 L 443.0,21.5 L 444.0,21.5 L 444.5,22.0 L 445.0,22.5 L 445.5,23.0 L 445.0,23.5 Z" stroke="black" fill="none" /><path d="M 452.0,24.5 L 451.0,24.5 L 450.0,24.5 L 449.0,24.5 L 448.0,24.5 L 447.0,24.5 L 446.0,24.5 L 445.5,24.0 L 446.0,23.5 L 447.0,23.5 L 448.0,23.5 L 449.0,23.5 L 450.0,23.5 L 451.0,23.5 L 452.0,23.5 L 452.5,24.0 L 452.0,24.5 Z" stroke="black" fill="none" /><path d="M 455.0,25.5 L 454.0,25.5 L 453.0,25.5 L 452.5,25.0 L 453.0,24.5 L 454.0,24.5 L 455.0,24.5 L 455.5,25.0 L 455.0,25.5 Z" stroke="black" fill="none" /><path d="M 464.0,27.5 L 463.0,27.5 L 462.0,27.5 L 461.0,27.5 L 460.0,27.5 L 459.0,27.5 L 458.0,27.5 L 457.0,27.5 L 456.5,27.0 L 456.0,26.5 L 455.5,26.0 L 456.0,25.5 L 457.0,25.5 L 457.5,26.0 L 458.0,26.5 L 459.0,26.5 L 460.0,26.5 L 461.0,26.5 L 462.0,26.5 L 463.0,26.5 L 464.0,26.5 L 464.5,27.0 L 464.0,27.5 Z" stroke="black" fill="none" /><path d="M 381.0,28.5 L 380.5,28.0 L 380.5,27.0 L 381.0,26.5 L 381.5,27.0 L 381.5,28.0 L 381.0,28.5 Z" stroke="black" fill="none" /><path d="M 466.0,28.5 L 465.0,28.5 L 464.5,28.0 L 465.0,27.5 L 466.0,27.5 L 466.5,28.0 L 466.0,28.5 Z" stroke="black" fill="none" /><path d="M 376.0,32.5 L 375.5,32.0 L 375.5,31.0 L 376.0,30.5 L 376.5,30.0 L 377.0,29.5 L 378.0,29.5 L 379.0,29.5 L 379.5,29.0 L 380.0,28.5 L 380.5,29.0 L 380.5,30.0 L 380.0,30.5 L 379.0,30.5 L 378.0,30.5 L 377.5,31.0 L 377.0,31.5 L 376.5,32.0 L 376.0,32.5 Z" stroke="black" fill="none" /><path d="M 478.0,32.5 L 477.0,32.5 L 476.5,32.0 L 476.0,31.5 L 475.0,31.5 L 474.5,31.0 L 474.0,30.5 L 473.0,30.5 L 472.0,30.5 L 471.0,30.5 L 470.0,30.5 L 469.0,30.5 L 468.0,30.5 L 467.5,30.0 L 467.0,29.5 L 466.5,29.0 L 467.0,28.5 L 468.0,28.5 L 468.5,29.0 L 469.0,29.5 L 470.0,29.5 L 471.0,29.5 L 472.0,29.5 L 473.0,29.5 L 474.0,29.5 L 475.0,29.5 L 475.5,30.0 L 476.0,30.5 L 477.0,30.5 L 477.5,31.0 L 478.0,31.5 L 478.5,32.0 L 478.0,32.5 Z" stroke="black" fill="none" /><path d="M 364.0,44.5 L 363.0,44.5 L 362.0,44.5 L 361.5,44.0 L 362.0,43.5 L 363.0,43.5 L 363.5,43.0 L 364.0,42.5 L 364.5,42.0 L 364.5,41.0 L 365.0,40.5 L 365.5,40.0 L 366.0,39.5 L 366.5,39.0 L 367.0,38.5 L 368.0,38.5 L 368.5,38.0 L 369.0,37.5 L 369.5,37.0 L 370.0,36.5 L 370.5,36.0 L 371.0,35.5 L 372.0,35.5 L 373.0,35.5 L 373.5,35.0 L 374.0,34.5 L 374.5,34.0 L 374.5,33.0 L 375.0,32.5 L 375.5,33.0 L 375.5,34.0 L 375.5,35.0 L 375.0,35.5 L 374.5,36.0 L 374.0,36.5 L 373.0,36.5 L 372.0,36.5 L 371.5,37.0 L 371.0,37.5 L 370.5,38.0 L 370.0,38.5 L 369.5,39.0 L 369.0,39.5 L 368.0,39.5 L 367.5,40.0 L 367.0,40.5 L 366.5,41.0 L 366.0,41.5 L 365.5,42.0 L 365.5,43.0 L 365.0,43.5 L 364.5,44.0 L 364.0,44.5 Z" stroke="black" fill="none" /><path d="M 488.0,44.5 L 487.0,44.5 L 486.0,44.5 L 485.5,44.0 L 486.0,43.5 L 487.0,43.5 L 487.5,43.0 L 487.5,42.0 L 487.5,41.0 L 487.5,40.0 L 487.5,39.0 L 487.5,38.0 L 487.5,37.0 L 487.5,36.0 L 487.5,35.0 L 487.0,34.5 L 486.5,34.0 L 486.0,33.5 L 485.0,33.5 L 484.0,33.5 L 483.0,33.5 L 482.0,33.5 L 481.0,33.5 L 480.0,33.5 L 479.0,33.5 L 478.5,33.0 L 479.0,32.5 L 480.0,32.5 L 481.0,32.5 L 482.0,32.5 L 483.0,32.5 L 484.0,32.5 L 485.0,32.5 L 486.0,32.5 L 487.0,32.5 L 487.5,33.0 L 488.0,33.5 L 488.5,34.0 L 488.5,35.0 L 488.5,36.0 L 488.5,37.0 L 488.5,38.0 L 488.5,39.0 L 488.5,40.0 L 488.5,41.0 L 488.5,42.0 L 488.5,43.0 L 488.5,44.0 L 488.0,44.5 Z" stroke="black" fill="none" /><path d="M 360.0,46.5 L 359.5,46.0 L 359.5,45.0 L 360.0,44.5 L 361.0,44.5 L 361.5,45.0 L 361.0,45.5 L 360.5,46.0 L 360.0,46.5 Z" stroke="black" fill="none" /><path d="M 479.0,51.5 L 478.0,51.5 L 477.5,51.0 L 478.0,50.5 L 478.5,50.0 L 479.0,49.5 L 480.0,49.5 L 480.5,49.0 L 481.0,48.5 L 481.5,48.0 L 482.0,47.5 L 482.5,47.0 L 482.5,46.0 L 482.5,45.0 L 483.0,44.5 L 484.0,44.5 L 485.0,44.5 L 485.5,45.0 L 485.0,45.5 L 484.0,45.5 L 483.5,46.0 L 483.5,47.0 L 483.5,48.0 L 483.0,48.5 L 482.5,49.0 L 482.0,49.5 L 481.5,50.0 L 481.0,50.5 L 480.0,50.5 L 479.5,51.0 L 479.0,51.5 Z" stroke="black" fill="none" /><path d="M 358.0,50.5 L 357.0,50.5 L 356.0,50.5 L 355.5,50.0 L 356.0,49.5 L 357.0,49.5 L 357.5,49.0 L 358.0,48.5 L 358.5,48.0 L 358.5,47.0 L 359.0,46.5 L 359.5,47.0 L 359.5,48.0 L 359.5,49.0 L 359.0,49.5 L 358.5,50.0 L 358.0,50.5 Z" stroke="black" fill="none" /><path d="M 343.0,61.5 L 342.0,61.5 L 341.5,61.0 L 342.0,60.5 L 342.5,60.0 L 343.0,59.5 L 343.5,59.0 L 344.0,58.5 L 345.0,58.5 L 345.5,58.0 L 346.0,57.5 L 347.0,57.5 L 347.5,57.0 L 348.0,56.5 L 348.5,56.0 L 348.5,55.0 L 349.0,54.5 L 349.5,54.0 L 350.0,53.5 L 350.5,53.0 L 351.0,52.5 L 352.0,52.5 L 352.5,52.0 L 353.0,51.5 L 353.5,51.0 L 354.0,50.5 L 355.0,50.5 L 355.5,51.0 L 355.0,51.5 L 354.5,52.0 L 354.0,52.5 L 353.5,53.0 L 353.0,53.5 L 352.0,53.5 L 351.5,54.0 L 351.0,54.5 L 350.5,55.0 L 350.0,55.5 L 349.5,56.0 L 349.5,57.0 L 349.0,57.5 L 348.5,58.0 L 348.0,58.5 L 347.0,58.5 L 346.5,59.0 L 346.0,59.5 L 345.0,59.5 L 344.5,60.0 L 344.0,60.5 L 343.5,61.0 L 343.0,61.5 Z" stroke="black" fill="none" /><path d="M 467.0,61.5 L 466.5,61.0 L 466.5,60.0 L 467.0,59.5 L 467.5,59.0 L 468.0,58.5 L 469.0,58.5 L 469.5,58.0 L 470.0,57.5 L 471.0,57.5 L 471.5,57.0 L 471.5,56.0 L 471.5,55.0 L 472.0,54.5 L 472.5,54.0 L 472.5,53.0 L 473.0,52.5 L 474.0,52.5 L 475.0,52.5 L 475.5,52.0 L 476.0,51.5 L 477.0,51.5 L 477.5,52.0 L 477.0,52.5 L 476.5,53.0 L 476.0,53.5 L 475.0,53.5 L 474.0,53.5 L 473.5,54.0 L 473.5,55.0 L 473.0,55.5 L 472.5,56.0 L 472.5,57.0 L 472.5,58.0 L 472.0,58.5 L 471.0,58.5 L 470.5,59.0 L 470.0,59.5 L 469.0,59.5 L 468.5,60.0 L 468.0,60.5 L 467.5,61.0 L 467.0,61.5 Z" stroke="black" fill="none" /><path d="M 333.0,69.5 L 332.5,69.0 L 332.5,68.0 L 333.0,67.5 L 333.5,67.0 L 334.0,66.5 L 335.0,66.5 L 336.0,66.5 L 336.5,66.0 L 337.0,65.5 L 337.5,65.0 L 338.0,64.5 L 338.5,64.0 L 338.5,63.0 L 339.0,62.5 L 339.5,62.0 L 340.0,61.5 L 341.0,61.5 L 341.5,62.0 L 341.0,62.5 L 340.5,63.0 L 340.0,63.5 L 339.5,64.0 L 339.5,65.0 L 339.0,65.5 L 338.5,66.0 L 338.0,66.5 L 337.5,67.0 L 337.0,67.5 L 336.0,67.5 L 335.0,67.5 L 334.5,68.0 L 334.0,68.5 L 333.5,69.0 L 333.0,69.5 Z" stroke="black" fill="none" /><path d="M 460.0,67.5 L 459.0,67.5 L 458.0,67.5 L 457.5,67.0 L 458.0,66.5 L 459.0,66.5 L 459.5,66.0 L 460.0,65.5 L 461.0,65.5 L 461.5,65.0 L 462.0,64.5 L 462.5,64.0 L 463.0,63.5 L 464.0,63.5 L 464.5,63.0 L 465.0,62.5 L 465.5,62.0 L 466.0,61.5 L 466.5,62.0 L 466.5,63.0 L 466.0,63.5 L 465.5,64.0 L 465.0,64.5 L 464.0,64.5 L 463.5,65.0 L 463.0,65.5 L 462.5,66.0 L 462.0,66.5 L 461.0,66.5 L 460.5,67.0 L 460.0,67.5 Z" stroke="black" fill="none" /><path d="M 455.0,72.5 L 454.0,72.5 L 453.5,72.0 L 454.0,71.5 L 454.5,71.0 L 454.5,70.0 L 455.0,69.5 L 455.5,69.0 L 455.5,68.0 L 456.0,67.5 L 457.0,67.5 L 457.5,68.0 L 457.0,68.5 L 456.5,69.0 L 456.5,70.0 L 456.0,70.5 L 455.5,71.0 L 455.5,72.0 L 455.0,72.5 Z" stroke="black" fill="none" /><path d="M 332.0,72.5 L 331.0,72.5 L 330.5,72.0 L 331.0,71.5 L 331.5,71.0 L 331.5,70.0 L 332.0,69.5 L 332.5,70.0 L 332.5,71.0 L 332.5,72.0 L 332.0,72.5 Z" stroke="black" fill="none" /><path d="M 328.0,74.5 L 327.0,74.5 L 326.5,74.0 L 327.0,73.5 L 327.5,73.0 L 328.0,72.5 L 329.0,72.5 L 330.0,72.5 L 330.5,73.0 L 330.0,73.5 L 329.0,73.5 L 328.5,74.0 L 328.0,74.5 Z" stroke="black" fill="none" /><path d="M 453.0,73.5 L 452.0,73.5 L 451.5,73.0 L 452.0,72.5 L 453.0,72.5 L 453.5,73.0 L 453.0,73.5 Z" stroke="black" fill="none" /><path d="M 450.0,75.5 L 449.0,75.5 L 448.5,75.0 L 449.0,74.5 L 449.5,74.0 L 450.0,73.5 L 451.0,73.5 L 451.5,74.0 L 451.0,74.5 L 450.5,75.0 L 450.0,75.5 Z" stroke="black" fill="none" /><path d="M 309.0,90.5 L 308.0,90.5 L 307.0,90.5 L 306.5,90.0 L 307.0,89.5 L 308.0,89.5 L 308.5,89.0 L 309.0,88.5 L 309.5,88.0 L 310.0,87.5 L 310.5,87.0 L 310.5,86.0 L 311.0,85.5 L 311.5,85.0 L 312.0,84.5 L 312.5,84.0 L 313.0,83.5 L 314.0,83.5 L 314.5,83.0 L 315.0,82.5 L 315.5,82.0 L 316.0,81.5 L 317.0,81.5 L 317.5,81.0 L 318.0,80.5 L 319.0,80.5 L 320.0,80.5 L 320.5,80.0 L 320.5,79.0 L 321.0,78.5 L 321.5,78.0 L 321.5,77.0 L 322.0,76.5 L 322.5,76.0 L 323.0,75.5 L 324.0,75.5 L 324.5,75.0 L 325.0,74.5 L 326.0,74.5 L 326.5,75.0 L 326.0,75.5 L 325.5,76.0 L 325.0,76.5 L 324.0,76.5 L 323.5,77.0 L 323.0,77.5 L 322.5,78.0 L 322.5,79.0 L 322.0,79.5 L 321.5,80.0 L 321.5,81.0 L 321.0,81.5 L 320.0,81.5 L 319.0,81.5 L 318.5,82.0 L 318.0,82.5 L 317.0,82.5 L 316.5,83.0 L 316.0,83.5 L 315.5,84.0 L 315.0,84.5 L 314.0,84.5 L 313.5,85.0 L 313.0,85.5 L 312.5,86.0 L 312.0,86.5 L 311.5,87.0 L 311.5,88.0 L 311.0,88.5 L 310.5,89.0 L 310.0,89.5 L 309.5,90.0 L 309.0,90.5 Z" stroke="black" fill="none" /><path d="M 446.0,77.5 L 445.5,77.0 L 445.5,76.0 L 446.0,75.5 L 447.0,75.5 L 448.0,75.5 L 448.5,76.0 L 448.0,76.5 L 447.0,76.5 L 446.5,77.0 L 446.0,77.5 Z" stroke="black" fill="none" /><path d="M 435.0,86.5 L 434.5,86.0 L 434.5,85.0 L 435.0,84.5 L 435.5,84.0 L 436.0,83.5 L 437.0,83.5 L 438.0,83.5 L 438.5,83.0 L 439.0,82.5 L 439.5,82.0 L 440.0,81.5 L 441.0,81.5 L 441.5,81.0 L 442.0,80.5 L 443.0,80.5 L 443.5,80.0 L 444.0,79.5 L 444.5,79.0 L 444.5,78.0 L 445.0,77.5 L 445.5,78.0 L 445.5,79.0 L 445.5,80.0 L 445.0,80.5 L 444.5,81.0 L 444.0,81.5 L 443.0,81.5 L 442.5,82.0 L 442.0,82.5 L 441.0,82.5 L 440.5,83.0 L 440.0,83.5 L 439.5,84.0 L 439.0,84.5 L 438.0,84.5 L 437.0,84.5 L 436.5,85.0 L 436.0,85.5 L 435.5,86.0 L 435.0,86.5 Z" stroke="black" fill="none" /><path d="M 424.0,95.5 L 423.5,95.0 L 423.5,94.0 L 424.0,93.5 L 424.5,93.0 L 425.0,92.5 L 426.0,92.5 L 426.5,92.0 L 427.0,91.5 L 428.0,91.5 L 428.5,91.0 L 429.0,90.5 L 429.5,90.0 L 430.0,89.5 L 431.0,89.5 L 432.0,89.5 L 432.5,89.0 L 433.0,88.5 L 433.5,88.0 L 433.5,87.0 L 434.0,86.5 L 434.5,87.0 L 434.5,88.0 L 434.5,89.0 L 434.0,89.5 L 433.5,90.0 L 433.0,90.5 L 432.0,90.5 L 431.0,90.5 L 430.5,91.0 L 430.0,91.5 L 429.5,92.0 L 429.0,92.5 L 428.0,92.5 L 427.5,93.0 L 427.0,93.5 L 426.0,93.5 L 425.5,94.0 L 425.0,94.5 L 424.5,95.0 L 424.0,95.5 Z" stroke="black" fill="none" /><path d="M 305.0,92.5 L 304.0,92.5 L 303.5,92.0 L 304.0,91.5 L 304.5,91.0 L 305.0,90.5 L 306.0,90.5 L 306.5,91.0 L 306.0,91.5 L 305.5,92.0 L 305.0,92.5 Z" stroke="black" fill="none" /><path d="M 295.0,100.5 L 294.0,100.5 L 293.5,100.0 L 294.0,99.5 L 294.5,99.0 L 295.0,98.5 L 296.0,98.5 L 296.5,98.0 L 297.0,97.5 L 298.0,97.5 L 298.5,97.0 L 299.0,96.5 L 299.5,96.0 L 299.5,95.0 L 300.0,94.5 L 300.5,94.0 L 300.5,93.0 L 301.0,92.5 L 302.0,92.5 L 303.0,92.5 L 303.5,93.0 L 303.0,93.5 L 302.0,93.5 L 301.5,94.0 L 301.5,95.0 L 301.0,95.5 L 300.5,96.0 L 300.5,97.0 L 300.0,97.5 L 299.5,98.0 L 299.0,98.5 L 298.0,98.5 L 297.5,99.0 L 297.0,99.5 L 296.0,99.5 L 295.5,100.0 L 295.0,100.5 Z" stroke="black" fill="none" /><path d="M 413.0,103.5 L 412.0,103.5 L 411.5,103.0 L 412.0,102.5 L 412.5,102.0 L 413.0,101.5 L 414.0,101.5 L 414.5,101.0 L 415.0,100.5 L 416.0,100.5 L 416.5,100.0 L 417.0,99.5 L 418.0,99.5 L 418.5,99.0 L 419.0,98.5 L 419.5,98.0 L 420.0,97.5 L 421.0,97.5 L 421.5,97.0 L 422.0,96.5 L 422.5,96.0 L 423.0,95.5 L 423.5,96.0 L 423.5,97.0 L 423.0,97.5 L 422.5,98.0 L 422.0,98.5 L 421.0,98.5 L 420.5,99.0 L 420.0,99.5 L 419.5,100.0 L 419.0,100.5 L 418.0,100.5 L 417.5,101.0 L 417.0,101.5 L 416.0,101.5 L 415.5,102.0 L 415.0,102.5 L 414.0,102.5 L 413.5,103.0 L 413.0,103.5 Z" stroke="black" fill="none" /><path d="M 293.0,101.5 L 292.0,101.5 L 291.5,101.0 L 292.0,100.5 L 293.0,100.5 L 293.5,101.0 L 293.0,101.5 Z" stroke="black" fill="none" /><path d="M 290.0,103.5 L 289.0,103.5 L 288.5,103.0 L 289.0,102.5 L 289.5,102.0 L 290.0,101.5 L 291.0,101.5 L 291.5,102.0 L 291.0,102.5 L 290.5,103.0 L 290.0,103.5 Z" stroke="black" fill="none" /><path d="M 282.0,110.5 L 281.0,110.5 L 280.0,110.5 L 279.5,110.0 L 280.0,109.5 L 281.0,109.5 L 281.5,109.0 L 282.0,108.5 L 282.5,108.0 L 283.0,107.5 L 283.5,107.0 L 284.0,106.5 L 284.5,106.0 L 285.0,105.5 L 285.5,105.0 L 286.0,104.5 L 286.5,104.0 L 287.0,103.5 L 288.0,103.5 L 288.5,104.0 L 288.0,104.5 L 287.5,105.0 L 287.0,105.5 L 286.5,106.0 L 286.0,106.5 L 285.5,107.0 L 285.0,107.5 L 284.5,108.0 L 284.0,108.5 L 283.5,109.0 L 283.0,109.5 L 282.5,110.0 L 282.0,110.5 Z" stroke="black" fill="none" /><path d="M 407.0,109.5 L 406.0,109.5 L 405.5,109.0 L 406.0,108.5 L 406.5,108.0 L 406.5,107.0 L 407.0,106.5 L 407.5,106.0 L 407.5,105.0 L 408.0,104.5 L 408.5,104.0 L 409.0,103.5 L 410.0,103.5 L 411.0,103.5 L 411.5,104.0 L 411.0,104.5 L 410.0,104.5 L 409.5,105.0 L 409.0,105.5 L 408.5,106.0 L 408.5,107.0 L 408.0,107.5 L 407.5,108.0 L 407.5,109.0 L 407.0,109.5 Z" stroke="black" fill="none" /><path d="M 390.0,121.5 L 389.0,121.5 L 388.0,121.5 L 387.5,121.0 L 388.0,120.5 L 389.0,120.5 L 389.5,120.0 L 390.0,119.5 L 391.0,119.5 L 391.5,119.0 L 392.0,118.5 L 392.5,118.0 L 393.0,117.5 L 394.0,117.5 L 394.5,117.0 L 395.0,116.5 L 395.5,116.0 L 395.5,115.0 L 396.0,114.5 L 396.5,114.0 L 397.0,113.5 L 397.5,113.0 L 398.0,112.5 L 399.0,112.5 L 399.5,112.0 L 400.0,111.5 L 401.0,111.5 L 401.5,111.0 L 402.0,110.5 L 402.5,110.0 L 403.0,109.5 L 404.0,109.5 L 405.0,109.5 L 405.5,110.0 L 405.0,110.5 L 404.0,110.5 L 403.5,111.0 L 403.0,111.5 L 402.5,112.0 L 402.0,112.5 L 401.0,112.5 L 400.5,113.0 L 400.0,113.5 L 399.0,113.5 L 398.5,114.0 L 398.0,114.5 L 397.5,115.0 L 397.0,115.5 L 396.5,116.0 L 396.5,117.0 L 396.0,117.5 L 395.5,118.0 L 395.0,118.5 L 394.0,118.5 L 393.5,119.0 L 393.0,119.5 L 392.5,120.0 L 392.0,120.5 L 391.0,120.5 L 390.5,121.0 L 390.0,121.5 Z" stroke="black" fill="none" /><path d="M 278.0,112.5 L 277.0,112.5 L 276.5,112.0 L 277.0,111.5 L 277.5,111.0 L 278.0,110.5 L 279.0,110.5 L 279.5,111.0 L 279.0,111.5 L 278.5,112.0 L 278.0,112.5 Z" stroke="black" fill="none" /><path d="M 276.0,113.5 L 275.0,113.5 L 274.5,113.0 L 275.0,112.5 L 276.0,112.5 L 276.5,113.0 L 276.0,113.5 Z" stroke="black" fill="none" /><path d="M 267.0,121.5 L 266.0,121.5 L 265.0,121.5 L 264.5,121.0 L 265.0,120.5 L 266.0,120.5 L 266.5,120.0 L 267.0,119.5 L 267.5,119.0 L 268.0,118.5 L 268.5,118.0 L 269.0,117.5 L 269.5,117.0 L 270.0,116.5 L 270.5,116.0 L 271.0,115.5 L 271.5,115.0 L 272.0,114.5 L 272.5,114.0 L 273.0,113.5 L 274.0,113.5 L 274.5,114.0 L 274.0,114.5 L 273.5,115.0 L 273.0,115.5 L 272.5,116.0 L 272.0,116.5 L 271.5,117.0 L 271.0,117.5 L 270.5,118.0 L 270.0,118.5 L 269.5,119.0 L 269.0,119.5 L 268.5,120.0 L 268.0,120.5 L 267.5,121.0 L 267.0,121.5 Z" stroke="black" fill="none" /><path d="M 241.0,138.5 L 240.0,138.5 L 239.5,138.0 L 240.0,137.5 L 240.5,137.0 L 241.0,136.5 L 241.5,136.0 L 242.0,135.5 L 243.0,135.5 L 243.5,135.0 L 244.0,134.5 L 245.0,134.5 L 245.5,134.0 L 246.0,133.5 L 246.5,133.0 L 247.0,132.5 L 248.0,132.5 L 248.5,132.0 L 249.0,131.5 L 250.0,131.5 L 250.5,131.0 L 251.0,130.5 L 251.5,130.0 L 252.0,129.5 L 253.0,129.5 L 254.0,129.5 L 254.5,129.0 L 255.0,128.5 L 255.5,128.0 L 256.0,127.5 L 256.5,127.0 L 256.5,126.0 L 257.0,125.5 L 257.5,125.0 L 258.0,124.5 L 258.5,124.0 L 259.0,123.5 L 260.0,123.5 L 260.5,123.0 L 261.0,122.5 L 262.0,122.5 L 262.5,122.0 L 263.0,121.5 L 264.0,121.5 L 264.5,122.0 L 264.0,122.5 L 263.5,123.0 L 263.0,123.5 L 262.0,123.5 L 261.5,124.0 L 261.0,124.5 L 260.0,124.5 L 259.5,125.0 L 259.0,125.5 L 258.5,126.0 L 258.0,126.5 L 257.5,127.0 L 257.5,128.0 L 257.0,128.5 L 256.5,129.0 L 256.0,129.5 L 255.5,130.0 L 255.0,130.5 L 254.0,130.5 L 253.0,130.5 L 252.5,131.0 L 252.0,131.5 L 251.5,132.0 L 251.0,132.5 L 250.0,132.5 L 249.5,133.0 L 249.0,133.5 L 248.0,133.5 L 247.5,134.0 L 247.0,134.5 L 246.5,135.0 L 246.0,135.5 L 245.0,135.5 L 244.5,136.0 L 244.0,136.5 L 243.0,136.5 L 242.5,137.0 L 242.0,137.5 L 241.5,138.0 L 241.0,138.5 Z" stroke="black" fill="none" /><path d="M 386.0,124.5 L 385.5,124.0 L 385.5,123.0 L 385.5,122.0 L 386.0,121.5 L 387.0,121.5 L 387.5,122.0 L 387.0,122.5 L 386.5,123.0 L 386.5,124.0 L 386.0,124.5 Z" stroke="black" fill="none" /><path d="M 384.0,127.5 L 383.0,127.5 L 382.0,127.5 L 381.5,127.0 L 382.0,126.5 L 383.0,126.5 L 383.5,126.0 L 384.0,125.5 L 384.5,125.0 L 385.0,124.5 L 385.5,125.0 L 385.5,126.0 L 385.0,126.5 L 384.5,127.0 L 384.0,127.5 Z" stroke="black" fill="none" /><path d="M 370.0,498.5 L 369.5,498.0 L 369.5,497.0 L 370.0,496.5 L 371.0,496.5 L 371.5,496.0 L 372.0,495.5 L 373.0,495.5 L 373.5,495.0 L 374.0,494.5 L 374.5,494.0 L 374.5,493.0 L 374.5,492.0 L 374.5,491.0 L 374.5,490.0 L 374.5,489.0 L 374.5,488.0 L 374.5,487.0 L 374.5,486.0 L 374.5,485.0 L 374.5,484.0 L 374.5,483.0 L 374.5,482.0 L 374.5,481.0 L 374.5,480.0 L 374.5,479.0 L 374.5,478.0 L 374.5,477.0 L 374.5,476.0 L 374.5,475.0 L 374.5,474.0 L 374.5,473.0 L 374.5,472.0 L 374.5,471.0 L 374.5,470.0 L 374.5,469.0 L 374.5,468.0 L 374.5,467.0 L 374.5,466.0 L 374.5,465.0 L 374.5,464.0 L 374.5,463.0 L 374.5,462.0 L 374.5,461.0 L 374.5,460.0 L 374.5,459.0 L 374.5,458.0 L 374.5,457.0 L 374.5,456.0 L 374.5,455.0 L 374.5,454.0 L 374.5,453.0 L 374.5,452.0 L 374.5,451.0 L 374.5,450.0 L 374.5,449.0 L 374.5,448.0 L 374.5,447.0 L 374.5,446.0 L 374.5,445.0 L 374.5,444.0 L 374.5,443.0 L 374.5,442.0 L 374.5,441.0 L 374.5,440.0 L 374.5,439.0 L 374.5,438.0 L 374.5,437.0 L 374.5,436.0 L 374.5,435.0 L 374.5,434.0 L 374.5,433.0 L 374.5,432.0 L 374.5,431.0 L 374.5,430.0 L 374.5,429.0 L 374.5,428.0 L 374.5,427.0 L 374.5,426.0 L 374.5,425.0 L 374.5,424.0 L 374.5,423.0 L 374.5,422.0 L 374.5,421.0 L 374.5,420.0 L 374.5,419.0 L 374.5,418.0 L 374.5,417.0 L 374.5,416.0 L 374.5,415.0 L 374.5,414.0 L 374.5,413.0 L 374.5,412.0 L 374.5,411.0 L 374.5,410.0 L 374.5,409.0 L 374.5,408.0 L 374.5,407.0 L 374.5,406.0 L 374.5,405.0 L 374.5,404.0 L 374.5,403.0 L 374.5,402.0 L 374.5,401.0 L 374.5,400.0 L 374.5,399.0 L 374.5,398.0 L 374.5,397.0 L 374.5,396.0 L 374.5,395.0 L 374.5,394.0 L 374.5,393.0 L 374.5,392.0 L 374.5,391.0 L 374.5,390.0 L 374.5,389.0 L 374.5,388.0 L 374.5,387.0 L 374.5,386.0 L 374.5,385.0 L 374.5,384.0 L 374.5,383.0 L 374.5,382.0 L 374.5,381.0 L 374.5,380.0 L 374.5,379.0 L 374.5,378.0 L 374.5,377.0 L 374.5,376.0 L 374.5,375.0 L 374.5,374.0 L 374.5,373.0 L 374.5,372.0 L 374.5,371.0 L 374.5,370.0 L 374.5,369.0 L 374.5,368.0 L 374.5,367.0 L 374.5,366.0 L 374.5,365.0 L 374.5,364.0 L 374.5,363.0 L 374.5,362.0 L 374.5,361.0 L 374.5,360.0 L 374.5,359.0 L 374.5,358.0 L 374.5,357.0 L 374.5,356.0 L 374.5,355.0 L 374.5,354.0 L 374.5,353.0 L 374.5,352.0 L 374.5,351.0 L 374.5,350.0 L 374.5,349.0 L 374.5,348.0 L 374.5,347.0 L 374.5,346.0 L 374.5,345.0 L 374.5,344.0 L 374.5,343.0 L 374.5,342.0 L 374.5,341.0 L 374.5,340.0 L 374.5,339.0 L 374.5,338.0 L 374.5,337.0 L 374.5,336.0 L 374.5,335.0 L 374.5,334.0 L 374.5,333.0 L 374.5,332.0 L 374.5,331.0 L 374.5,330.0 L 374.5,329.0 L 374.5,328.0 L 374.5,327.0 L 374.5,326.0 L 374.5,325.0 L 374.5,324.0 L 374.5,323.0 L 374.5,322.0 L 374.5,321.0 L 374.5,320.0 L 374.5,319.0 L 374.5,318.0 L 374.5,317.0 L 374.5,316.0 L 374.5,315.0 L 374.5,314.0 L 374.5,313.0 L 374.5,312.0 L 374.5,311.0 L 374.5,310.0 L 374.5,309.0 L 374.5,308.0 L 374.5,307.0 L 374.5,306.0 L 374.5,305.0 L 374.5,304.0 L 374.5,303.0 L 374.5,302.0 L 374.5,301.0 L 374.5,300.0 L 374.5,299.0 L 374.5,298.0 L 374.5,297.0 L 374.5,296.0 L 374.5,295.0 L 374.5,294.0 L 374.5,293.0 L 374.5,292.0 L 374.5,291.0 L 374.5,290.0 L 374.5,289.0 L 374.5,288.0 L 374.5,287.0 L 374.5,286.0 L 374.5,285.0 L 374.5,284.0 L 374.5,283.0 L 374.5,282.0 L 374.5,281.0 L 374.5,280.0 L 374.5,279.0 L 374.5,278.0 L 374.5,277.0 L 374.5,276.0 L 374.5,275.0 L 374.5,274.0 L 374.5,273.0 L 374.5,272.0 L 374.5,271.0 L 374.5,270.0 L 374.5,269.0 L 374.5,268.0 L 374.5,267.0 L 374.5,266.0 L 374.5,265.0 L 374.5,264.0 L 374.5,263.0 L 374.5,262.0 L 374.5,261.0 L 374.5,260.0 L 374.5,259.0 L 374.5,258.0 L 374.5,257.0 L 374.5,256.0 L 374.5,255.0 L 374.5,254.0 L 374.5,253.0 L 374.5,252.0 L 374.5,251.0 L 374.5,250.0 L 374.5,249.0 L 374.5,248.0 L 374.5,247.0 L 374.5,246.0 L 374.5,245.0 L 374.5,244.0 L 374.5,243.0 L 374.5,242.0 L 374.5,241.0 L 374.5,240.0 L 374.5,239.0 L 374.5,238.0 L 374.5,237.0 L 374.5,236.0 L 374.5,235.0 L 374.5,234.0 L 374.5,233.0 L 374.5,232.0 L 374.5,231.0 L 374.5,230.0 L 374.5,229.0 L 374.5,228.0 L 374.5,227.0 L 374.5,226.0 L 374.5,225.0 L 374.5,224.0 L 374.5,223.0 L 374.5,222.0 L 374.5,221.0 L 374.5,220.0 L 374.5,219.0 L 374.5,218.0 L 374.5,217.0 L 374.5,216.0 L 374.5,215.0 L 374.5,214.0 L 374.5,213.0 L 374.5,212.0 L 374.5,211.0 L 374.5,210.0 L 374.5,209.0 L 374.5,208.0 L 374.5,207.0 L 374.5,206.0 L 374.5,205.0 L 374.5,204.0 L 374.5,203.0 L 374.5,202.0 L 374.5,201.0 L 374.5,200.0 L 374.5,199.0 L 374.5,198.0 L 374.5,197.0 L 374.5,196.0 L 374.5,195.0 L 374.5,194.0 L 374.5,193.0 L 374.5,192.0 L 374.5,191.0 L 374.5,190.0 L 374.5,189.0 L 374.5,188.0 L 374.5,187.0 L 374.5,186.0 L 374.5,185.0 L 374.5,184.0 L 374.5,183.0 L 374.5,182.0 L 374.5,181.0 L 374.5,180.0 L 374.5,179.0 L 374.5,178.0 L 374.5,177.0 L 374.5,176.0 L 374.5,175.0 L 374.5,174.0 L 374.5,173.0 L 374.5,172.0 L 374.5,171.0 L 374.5,170.0 L 374.5,169.0 L 374.5,168.0 L 374.5,167.0 L 374.5,166.0 L 374.5,165.0 L 374.5,164.0 L 374.5,163.0 L 374.5,162.0 L 374.5,161.0 L 374.5,160.0 L 374.5,159.0 L 374.5,158.0 L 374.5,157.0 L 374.5,156.0 L 374.5,155.0 L 374.5,154.0 L 374.5,153.0 L 374.5,152.0 L 374.5,151.0 L 374.5,150.0 L 374.5,149.0 L 374.5,148.0 L 374.5,147.0 L 374.5,146.0 L 374.5,145.0 L 374.5,144.0 L 374.5,143.0 L 374.5,142.0 L 374.5,141.0 L 374.5,140.0 L 374.5,139.0 L 374.5,138.0 L 374.5,137.0 L 374.5,136.0 L 374.5,135.0 L 374.5,134.0 L 374.5,133.0 L 374.5,132.0 L 374.5,131.0 L 375.0,130.5 L 375.5,130.0 L 376.0,129.5 L 377.0,129.5 L 377.5,129.0 L 378.0,128.5 L 379.0,128.5 L 379.5,128.0 L 380.0,127.5 L 381.0,127.5 L 381.5,128.0 L 381.0,128.5 L 380.5,129.0 L 380.0,129.5 L 379.0,129.5 L 378.5,130.0 L 378.0,130.5 L 377.0,130.5 L 376.5,131.0 L 376.0,131.5 L 375.5,132.0 L 375.5,133.0 L 375.5,134.0 L 375.5,135.0 L 375.5,136.0 L 375.5,137.0 L 375.5,138.0 L 375.5,139.0 L 375.5,140.0 L 375.5,141.0 L 375.5,142.0 L 375.5,143.0 L 375.5,144.0 L 375.5,145.0 L 375.5,146.0 L 375.5,147.0 L 375.5,148.0 L 375.5,149.0 L 375.5,150.0 L 375.5,151.0 L 375.5,152.0 L 375.5,153.0 L 375.5,154.0 L 375.5,155.0 L 375.5,156.0 L 375.5,157.0 L 375.5,158.0 L 375.5,159.0 L 375.5,160.0 L 375.5,161.0 L 375.5,162.0 L 375.5,163.0 L 375.5,164.0 L 375.5,165.0 L 375.5,166.0 L 375.5,167.0 L 375.5,168.0 L 375.5,169.0 L 375.5,170.0 L 375.5,171.0 L 375.5,172.0 L 375.5,173.0 L 375.5,174.0 L 375.5,175.0 L 375.5,176.0 L 375.5,177.0 L 375.5,178.0 L 375.5,179.0 L 375.5,180.0 L 375.5,181.0 L 375.5,182.0 L 375.5,183.0 L 375.5,184.0 L 375.5,185.0 L 375.5,186.0 L 375.5,187.0 L 375.5,188.0 L 375.5,189.0 L 375.5,190.0 L 375.5,191.0 L 375.5,192.0 L 375.5,193.0 L 375.5,194.0 L 375.5,195.0 L 375.5,196.0 L 375.5,197.0 L 375.5,198.0 L 375.5,199.0 L 375.5,200.0 L 375.5,201.0 L 375.5,202.0 L 375.5,203.0 L 375.5,204.0 L 375.5,205.0 L 375.5,206.0 L 375.5,207.0 L 375.5,208.0 L 375.5,209.0 L 375.5,210.0 L 375.5,211.0 L 375.5,212.0 L 375.5,213.0 L 375.5,214.0 L 375.5,215.0 L 375.5,216.0 L 375.5,217.0 L 375.5,218.0 L 375.5,219.0 L 375.5,220.0 L 375.5,221.0 L 375.5,222.0 L 375.5,223.0 L 375.5,224.0 L 375.5,225.0 L 375.5,226.0 L 375.5,227.0 L 375.5,228.0 L 375.5,229.0 L 375.5,230.0 L 375.5,231.0 L 375.5,232.0 L 375.5,233.0 L 375.5,234.0 L 375.5,235.0 L 375.5,236.0 L 375.5,237.0 L 375.5,238.0 L 375.5,239.0 L 375.5,240.0 L 375.5,241.0 L 375.5,242.0 L 375.5,243.0 L 375.5,244.0 L 375.5,245.0 L 375.5,246.0 L 375.5,247.0 L 375.5,248.0 L 375.5,249.0 L 375.5,250.0 L 375.5,251.0 L 375.5,252.0 L 375.5,253.0 L 375.5,254.0 L 375.5,255.0 L 375.5,256.0 L 375.5,257.0 L 375.5,258.0 L 375.5,259.0 L 375.5,260.0 L 375.5,261.0 L 375.5,262.0 L 375.5,263.0 L 375.5,264.0 L 375.5,265.0 L 375.5,266.0 L 375.5,267.0 L 375.5,268.0 L 375.5,269.0 L 375.5,270.0 L 375.5,271.0 L 375.5,272.0 L 375.5,273.0 L 375.5,274.0 L 375.5,275.0 L 375.5,276.0 L 375.5,277.0 L 375.5,278.0 L 375.5,279.0 L 375.5,280.0 L 375.5,281.0 L 375.5,282.0 L 375.5,283.0 L 375.5,284.0 L 375.5,285.0 L 375.5,286.0 L 375.5,287.0 L 375.5,288.0 L 375.5,289.0 L 375.5,290.0 L 375.5,291.0 L 375.5,292.0 L 375.5,293.0 L 375.5,294.0 L 375.5,295.0 L 375.5,296.0 L 375.5,297.0 L 375.5,298.0 L 375.5,299.0 L 375.5,300.0 L 375.5,301.0 L 375.5,302.0 L 375.5,303.0 L 375.5,304.0 L 375.5,305.0 L 375.5,306.0 L 375.5,307.0 L 375.5,308.0 L 375.5,309.0 L 375.5,310.0 L 375.5,311.0 L 375.5,312.0 L 375.5,313.0 L 375.5,314.0 L 375.5,315.0 L 375.5,316.0 L 375.5,317.0 L 375.5,318.0 L 375.5,319.0 L 375.5,320.0 L 375.5,321.0 L 375.5,322.0 L 375.5,323.0 L 375.5,324.0 L 375.5,325.0 L 375.5,326.0 L 375.5,327.0 L 375.5,328.0 L 375.5,329.0 L 375.5,330.0 L 375.5,331.0 L 375.5,332.0 L 375.5,333.0 L 375.5,334.0 L 375.5,335.0 L 375.5,336.0 L 375.5,337.0 L 375.5,338.0 L 375.5,339.0 L 375.5,340.0 L 375.5,341.0 L 375.5,342.0 L 375.5,343.0 L 375.5,344.0 L 375.5,345.0 L 375.5,346.0 L 375.5,347.0 L 375.5,348.0 L 375.5,349.0 L 375.5,350.0 L 375.5,351.0 L 375.5,352.0 L 375.5,353.0 L 375.5,354.0 L 375.5,355.0 L 375.5,356.0 L 375.5,357.0 L 375.5,358.0 L 375.5,359.0 L 375.5,360.0 L 375.5,361.0 L 375.5,362.0 L 375.5,363.0 L 375.5,364.0 L 375.5,365.0 L 375.5,366.0 L 375.5,367.0 L 375.5,368.0 L 375.5,369.0 L 375.5,370.0 L 375.5,371.0 L 375.5,372.0 L 375.5,373.0 L 375.5,374.0 L 375.5,375.0 L 375.5,376.0 L 375.5,377.0 L 375.5,378.0 L 375.5,379.0 L 375.5,380.0 L 375.5,381.0 L 375.5,382.0 L 375.5,383.0 L 375.5,384.0 L 375.5,385.0 L 375.5,386.0 L 375.5,387.0 L 375.5,388.0 L 375.5,389.0 L 375.5,390.0 L 375.5,391.0 L 375.5,392.0 L 375.5,393.0 L 375.5,394.0 L 375.5,395.0 L 375.5,396.0 L 375.5,397.0 L 375.5,398.0 L 375.5,399.0 L 375.5,400.0 L 375.5,401.0 L 375.5,402.0 L 375.5,403.0 L 375.5,404.0 L 375.5,405.0 L 375.5,406.0 L 375.5,407.0 L 375.5,408.0 L 375.5,409.0 L 375.5,410.0 L 375.5,411.0 L 375.5,412.0 L 375.5,413.0 L 375.5,414.0 L 375.5,415.0 L 375.5,416.0 L 375.5,417.0 L 375.5,418.0 L 375.5,419.0 L 375.5,420.0 L 375.5,421.0 L 375.5,422.0 L 375.5,423.0 L 375.5,424.0 L 375.5,425.0 L 375.5,426.0 L 375.5,427.0 L 375.5,428.0 L 375.5,429.0 L 375.5,430.0 L 375.5,431.0 L 375.5,432.0 L 375.5,433.0 L 375.5,434.0 L 375.5,435.0 L 375.5,436.0 L 375.5,437.0 L 375.5,438.0 L 375.5,439.0 L 375.5,440.0 L 375.5,441.0 L 375.5,442.0 L 375.5,443.0 L 375.5,444.0 L 375.5,445.0 L 375.5,446.0 L 375.5,447.0 L 375.5,448.0 L 375.5,449.0 L 375.5,450.0 L 375.5,451.0 L 375.5,452.0 L 375.5,453.0 L 375.5,454.0 L 375.5,455.0 L 375.5,456.0 L 375.5,457.0 L 375.5,458.0 L 375.5,459.0 L 375.5,460.0 L 375.5,461.0 L 375.5,462.0 L 375.5,463.0 L 375.5,464.0 L 375.5,465.0 L 375.5,466.0 L 375.5,467.0 L 375.5,468.0 L 375.5,469.0 L 375.5,470.0 L 375.5,471.0 L 375.5,472.0 L 375.5,473.0 L 375.5,474.0 L 375.5,475.0 L 375.5,476.0 L 375.5,477.0 L 375.5,478.0 L 375.5,479.0 L 375.5,480.0 L 375.5,481.0 L 375.5,482.0 L 375.5,483.0 L 375.5,484.0 L 375.5,485.0 L 375.5,486.0 L 375.5,487.0 L 375.5,488.0 L 375.5,489.0 L 375.5,490.0 L 375.5,491.0 L 375.5,492.0 L 375.5,493.0 L 375.5,494.0 L 375.5,495.0 L 375.0,495.5 L 374.5,496.0 L 374.0,496.5 L 373.0,496.5 L 372.5,497.0 L 372.0,497.5 L 371.0,497.5 L 370.5,498.0 L 370.0,498.5 Z" stroke="black" fill="none" /><path d="M 224.0,149.5 L 223.0,149.5 L 222.5,149.0 L 223.0,148.5 L 223.5,148.0 L 224.0,147.5 L 225.0,147.5 L 225.5,147.0 L 226.0,146.5 L 227.0,146.5 L 227.5,146.0 L 228.0,145.5 L 229.0,145.5 L 229.5,145.0 L 230.0,144.5 L 230.5,144.0 L 231.0,143.5 L 232.0,143.5 L 233.0,143.5 L 233.5,143.0 L 234.0,142.5 L 234.5,142.0 L 235.0,141.5 L 235.5,141.0 L 236.0,140.5 L 236.5,140.0 L 237.0,139.5 L 237.5,139.0 L 238.0,138.5 L 239.0,138.5 L 239.5,139.0 L 239.0,139.5 L 238.5,140.0 L 238.0,140.5 L 237.5,141.0 L 237.0,141.5 L 236.5,142.0 L 236.0,142.5 L 235.5,143.0 L 235.0,143.5 L 234.5,144.0 L 234.0,144.5 L 233.0,144.5 L 232.0,144.5 L 231.5,145.0 L 231.0,145.5 L 230.5,146.0 L 230.0,146.5 L 229.0,146.5 L 228.5,147.0 L 228.0,147.5 L 227.0,147.5 L 226.5,148.0 L 226.0,148.5 L 225.0,148.5 L 224.5,149.0 L 224.0,149.5 Z" stroke="black" fill="none" /><path d="M 222.0,150.5 L 221.0,150.5 L 220.5,150.0 L 221.0,149.5 L 222.0,149.5 L 222.5,150.0 L 222.0,150.5 Z" stroke="black" fill="none" /><path d="M 214.0,157.5 L 213.0,157.5 L 212.5,157.0 L 213.0,156.5 L 213.5,156.0 L 213.5,155.0 L 214.0,154.5 L 214.5,154.0 L 215.0,153.5 L 215.5,153.0 L 216.0,152.5 L 217.0,152.5 L 217.5,152.0 L 218.0,151.5 L 218.5,151.0 L 219.0,150.5 L 220.0,150.5 L 220.5,151.0 L 220.0,151.5 L 219.5,152.0 L 219.0,152.5 L 218.5,153.0 L 218.0,153.5 L 217.0,153.5 L 216.5,154.0 L 216.0,154.5 L 215.5,155.0 L 215.0,155.5 L 214.5,156.0 L 214.5,157.0 L 214.0,157.5 Z" stroke="black" fill="none" /><path d="M 210.0,159.5 L 209.0,159.5 L 208.5,159.0 L 209.0,158.5 L 209.5,158.0 L 210.0,157.5 L 211.0,157.5 L 212.0,157.5 L 212.5,158.0 L 212.0,158.5 L 211.0,158.5 L 210.5,159.0 L 210.0,159.5 Z" stroke="black" fill="none" /><path d="M 207.0,161.5 L 206.0,161.5 L 205.0,161.5 L 204.5,161.0 L 205.0,160.5 L 206.0,160.5 L 206.5,160.0 L 207.0,159.5 L 208.0,159.5 L 208.5,160.0 L 208.0,160.5 L 207.5,161.0 L 207.0,161.5 Z" stroke="black" fill="none" /><path d="M 203.0,163.5 L 202.0,163.5 L 201.5,163.0 L 202.0,162.5 L 202.5,162.0 L 203.0,161.5 L 204.0,161.5 L 204.5,162.0 L 204.0,162.5 L 203.5,163.0 L 203.0,163.5 Z" stroke="black" fill="none" /><path d="M 196.0,167.5 L 195.0,167.5 L 194.5,167.0 L 195.0,166.5 L 195.5,166.0 L 196.0,165.5 L 197.0,165.5 L 197.5,165.0 L 198.0,164.5 L 198.5,164.0 L 199.0,163.5 L 200.0,163.5 L 201.0,163.5 L 201.5,164.0 L 201.0,164.5 L 200.0,164.5 L 199.5,165.0 L 199.0,165.5 L 198.5,166.0 L 198.0,166.5 L 197.0,166.5 L 196.5,167.0 L 196.0,167.5 Z" stroke="black" fill="none" /><path d="M 193.0,169.5 L 192.0,169.5 L 191.5,169.0 L 192.0,168.5 L 192.5,168.0 L 193.0,167.5 L 194.0,167.5 L 194.5,168.0 L 194.0,168.5 L 193.5,169.0 L 193.0,169.5 Z" stroke="black" fill="none" /><path d="M 191.0,170.5 L 190.0,170.5 L 189.5,170.0 L 190.0,169.5 L 191.0,169.5 L 191.5,170.0 L 191.0,170.5 Z" stroke="black" fill="none" /><path d="M 180.0,178.5 L 179.0,178.5 L 178.0,178.5 L 177.5,178.0 L 178.0,177.5 L 179.0,177.5 L 179.5,177.0 L 180.0,176.5 L 180.5,176.0 L 181.0,175.5 L 181.5,175.0 L 182.0,174.5 L 182.5,174.0 L 183.0,173.5 L 183.5,173.0 L 184.0,172.5 L 185.0,172.5 L 185.5,172.0 L 186.0,171.5 L 187.0,171.5 L 187.5,171.0 L 188.0,170.5 L 189.0,170.5 L 189.5,171.0 L 189.0,171.5 L 188.5,172.0 L 188.0,172.5 L 187.0,172.5 L 186.5,173.0 L 186.0,173.5 L 185.0,173.5 L 184.5,174.0 L 184.0,174.5 L 183.5,175.0 L 183.0,175.5 L 182.5,176.0 L 182.0,176.5 L 181.5,177.0 L 181.0,177.5 L 180.5,178.0 L 180.0,178.5 Z" stroke="black" fill="none" /><path d="M 170.0,183.5 L 169.0,183.5 L 168.5,183.0 L 169.0,182.5 L 169.5,182.0 L 170.0,181.5 L 171.0,181.5 L 171.5,181.0 L 172.0,180.5 L 173.0,180.5 L 173.5,180.0 L 174.0,179.5 L 175.0,179.5 L 175.5,179.0 L 176.0,178.5 L 177.0,178.5 L 177.5,179.0 L 177.0,179.5 L 176.5,180.0 L 176.0,180.5 L 175.0,180.5 L 174.5,181.0 L 174.0,181.5 L 173.0,181.5 L 172.5,182.0 L 172.0,182.5 L 171.0,182.5 L 170.5,183.0 L 170.0,183.5 Z" stroke="black" fill="none" /><path d="M 168.0,184.5 L 167.0,184.5 L 166.5,184.0 L 167.0,183.5 L 168.0,183.5 L 168.5,184.0 L 168.0,184.5 Z" stroke="black" fill="none" /><path d="M 158.0,190.5 L 157.0,190.5 L 156.0,190.5 L 155.5,190.0 L 156.0,189.5 L 157.0,189.5 L 157.5,189.0 L 158.0,188.5 L 159.0,188.5 L 159.5,188.0 L 160.0,187.5 L 160.5,187.0 L 161.0,186.5 L 162.0,186.5 L 162.5,186.0 L 163.0,185.5 L 164.0,185.5 L 164.5,185.0 L 165.0,184.5 L 166.0,184.5 L 166.5,185.0 L 166.0,185.5 L 165.5,186.0 L 165.0,186.5 L 164.0,186.5 L 163.5,187.0 L 163.0,187.5 L 162.0,187.5 L 161.5,188.0 L 161.0,188.5 L 160.5,189.0 L 160.0,189.5 L 159.0,189.5 L 158.5,190.0 L 158.0,190.5 Z" stroke="black" fill="none" /><path d="M 150.0,194.5 L 149.0,194.5 L 148.5,194.0 L 149.0,193.5 L 149.5,193.0 L 150.0,192.5 L 151.0,192.5 L 151.5,192.0 L 152.0,191.5 L 153.0,191.5 L 153.5,191.0 L 154.0,190.5 L 155.0,190.5 L 155.5,191.0 L 155.0,191.5 L 154.5,192.0 L 154.0,192.5 L 153.0,192.5 L 152.5,193.0 L 152.0,193.5 L 151.0,193.5 L 150.5,194.0 L 150.0,194.5 Z" stroke="black" fill="none" /><path d="M 143.0,198.5 L 142.0,198.5 L 141.0,198.5 L 140.5,198.0 L 141.0,197.5 L 142.0,197.5 L 142.5,197.0 L 143.0,196.5 L 143.5,196.0 L 144.0,195.5 L 145.0,195.5 L 145.5,195.0 L 146.0,194.5 L 147.0,194.5 L 148.0,194.5 L 148.5,195.0 L 148.0,195.5 L 147.0,195.5 L 146.5,196.0 L 146.0,196.5 L 145.0,196.5 L 144.5,197.0 L 144.0,197.5 L 143.5,198.0 L 143.0,198.5 Z" stroke="black" fill="none" /><path d="M 139.0,200.5 L 138.0,200.5 L 137.5,200.0 L 138.0,199.5 L 138.5,199.0 L 139.0,198.5 L 140.0,198.5 L 140.5,199.0 L 140.0,199.5 L 139.5,200.0 L 139.0,200.5 Z" stroke="black" fill="none" /><path d="M 135.0,202.5 L 134.0,202.5 L 133.5,202.0 L 134.0,201.5 L 134.5,201.0 L 135.0,200.5 L 136.0,200.5 L 137.0,200.5 L 137.5,201.0 L 137.0,201.5 L 136.0,201.5 L 135.5,202.0 L 135.0,202.5 Z" stroke="black" fill="none" /><path d="M 129.0,206.5 L 128.5,206.0 L 128.5,205.0 L 129.0,204.5 L 129.5,204.0 L 130.0,203.5 L 131.0,203.5 L 131.5,203.0 L 132.0,202.5 L 133.0,202.5 L 133.5,203.0 L 133.0,203.5 L 132.5,204.0 L 132.0,204.5 L 131.0,204.5 L 130.5,205.0 L 130.0,205.5 L 129.5,206.0 L 129.0,206.5 Z" stroke="black" fill="none" /><path d="M 124.0,210.5 L 123.0,210.5 L 122.5,210.0 L 123.0,209.5 L 123.5,209.0 L 124.0,208.5 L 125.0,208.5 L 126.0,208.5 L 126.5,208.0 L 127.0,207.5 L 127.5,207.0 L 128.0,206.5 L 128.5,207.0 L 128.5,208.0 L 128.0,208.5 L 127.5,209.0 L 127.0,209.5 L 126.0,209.5 L 125.0,209.5 L 124.5,210.0 L 124.0,210.5 Z" stroke="black" fill="none" /><path d="M 267.0,497.5 L 266.5,497.0 L 266.5,496.0 L 266.5,495.0 L 266.5,494.0 L 266.5,493.0 L 266.5,492.0 L 266.5,491.0 L 266.5,490.0 L 266.5,489.0 L 266.5,488.0 L 266.5,487.0 L 266.5,486.0 L 266.5,485.0 L 266.5,484.0 L 266.5,483.0 L 266.5,482.0 L 266.5,481.0 L 266.5,480.0 L 266.5,479.0 L 266.5,478.0 L 266.5,477.0 L 266.5,476.0 L 266.5,475.0 L 266.5,474.0 L 266.5,473.0 L 266.5,472.0 L 266.5,471.0 L 266.5,470.0 L 266.5,469.0 L 266.5,468.0 L 266.5,467.0 L 266.5,466.0 L 266.5,465.0 L 266.5,464.0 L 266.5,463.0 L 266.5,462.0 L 266.5,461.0 L 266.5,460.0 L 266.5,459.0 L 266.5,458.0 L 266.5,457.0 L 266.5,456.0 L 266.5,455.0 L 266.5,454.0 L 266.5,453.0 L 266.5,452.0 L 266.5,451.0 L 266.5,450.0 L 266.5,449.0 L 266.5,448.0 L 266.5,447.0 L 266.5,446.0 L 266.5,445.0 L 266.5,444.0 L 266.5,443.0 L 266.5,442.0 L 266.5,441.0 L 266.5,440.0 L 266.5,439.0 L 266.5,438.0 L 266.5,437.0 L 266.5,436.0 L 266.5,435.0 L 266.5,434.0 L 266.5,433.0 L 266.5,432.0 L 266.5,431.0 L 266.5,430.0 L 266.5,429.0 L 266.5,428.0 L 266.5,427.0 L 266.5,426.0 L 266.5,425.0 L 266.5,424.0 L 266.5,423.0 L 266.5,422.0 L 266.5,421.0 L 266.5,420.0 L 266.5,419.0 L 266.5,418.0 L 266.5,417.0 L 266.5,416.0 L 266.5,415.0 L 266.5,414.0 L 266.5,413.0 L 266.5,412.0 L 266.5,411.0 L 266.5,410.0 L 266.5,409.0 L 266.5,408.0 L 266.5,407.0 L 266.5,406.0 L 266.5,405.0 L 266.5,404.0 L 266.5,403.0 L 266.5,402.0 L 266.5,401.0 L 266.5,400.0 L 266.5,399.0 L 266.5,398.0 L 266.5,397.0 L 266.5,396.0 L 266.5,395.0 L 266.5,394.0 L 266.5,393.0 L 266.5,392.0 L 266.5,391.0 L 266.5,390.0 L 266.5,389.0 L 266.5,388.0 L 266.5,387.0 L 266.5,386.0 L 266.5,385.0 L 266.5,384.0 L 266.5,383.0 L 266.5,382.0 L 266.5,381.0 L 266.5,380.0 L 266.5,379.0 L 266.5,378.0 L 266.5,377.0 L 266.5,376.0 L 266.5,375.0 L 266.5,374.0 L 266.5,373.0 L 266.5,372.0 L 266.5,371.0 L 266.5,370.0 L 266.5,369.0 L 266.5,368.0 L 266.5,367.0 L 266.5,366.0 L 266.5,365.0 L 266.5,364.0 L 266.5,363.0 L 266.5,362.0 L 266.5,361.0 L 266.5,360.0 L 266.5,359.0 L 266.5,358.0 L 266.5,357.0 L 266.5,356.0 L 266.5,355.0 L 266.5,354.0 L 266.5,353.0 L 266.5,352.0 L 266.5,351.0 L 266.5,350.0 L 266.5,349.0 L 266.5,348.0 L 266.5,347.0 L 266.5,346.0 L 266.5,345.0 L 266.5,344.0 L 266.5,343.0 L 266.5,342.0 L 266.5,341.0 L 266.5,340.0 L 266.5,339.0 L 266.5,338.0 L 266.5,337.0 L 266.5,336.0 L 266.5,335.0 L 266.5,334.0 L 266.5,333.0 L 266.5,332.0 L 266.5,331.0 L 266.5,330.0 L 266.5,329.0 L 266.5,328.0 L 266.5,327.0 L 266.5,326.0 L 266.5,325.0 L 266.5,324.0 L 266.5,323.0 L 266.5,322.0 L 266.5,321.0 L 266.5,320.0 L 266.5,319.0 L 266.5,318.0 L 266.5,317.0 L 266.5,316.0 L 266.5,315.0 L 266.5,314.0 L 266.5,313.0 L 266.5,312.0 L 266.5,311.0 L 266.5,310.0 L 266.5,309.0 L 266.5,308.0 L 266.5,307.0 L 266.5,306.0 L 266.5,305.0 L 266.5,304.0 L 266.5,303.0 L 266.5,302.0 L 266.5,301.0 L 266.5,300.0 L 266.5,299.0 L 266.5,298.0 L 266.5,297.0 L 266.5,296.0 L 266.5,295.0 L 266.5,294.0 L 266.5,293.0 L 266.5,292.0 L 266.5,291.0 L 266.5,290.0 L 266.5,289.0 L 266.5,288.0 L 266.5,287.0 L 266.5,286.0 L 266.5,285.0 L 266.5,284.0 L 266.5,283.0 L 266.5,282.0 L 266.5,281.0 L 266.5,280.0 L 266.5,279.0 L 266.5,278.0 L 266.5,277.0 L 266.5,276.0 L 266.5,275.0 L 266.5,274.0 L 266.5,273.0 L 266.5,272.0 L 266.5,271.0 L 266.5,270.0 L 266.5,269.0 L 266.5,268.0 L 266.5,267.0 L 266.5,266.0 L 266.5,265.0 L 266.5,264.0 L 266.5,263.0 L 266.5,262.0 L 266.5,261.0 L 266.5,260.0 L 266.5,259.0 L 266.5,258.0 L 266.5,257.0 L 266.5,256.0 L 266.5,255.0 L 266.5,254.0 L 266.5,253.0 L 266.5,252.0 L 266.5,251.0 L 266.5,250.0 L 266.5,249.0 L 266.5,248.0 L 266.5,247.0 L 266.5,246.0 L 266.5,245.0 L 266.5,244.0 L 266.5,243.0 L 266.5,242.0 L 266.5,241.0 L 266.5,240.0 L 266.5,239.0 L 266.5,238.0 L 266.5,237.0 L 266.5,236.0 L 266.5,235.0 L 266.5,234.0 L 266.5,233.0 L 266.5,232.0 L 266.5,231.0 L 266.5,230.0 L 266.5,229.0 L 266.5,228.0 L 266.5,227.0 L 266.5,226.0 L 266.5,225.0 L 266.5,224.0 L 266.5,223.0 L 266.5,222.0 L 266.5,221.0 L 266.5,220.0 L 266.5,219.0 L 266.5,218.0 L 266.5,217.0 L 266.5,216.0 L 266.5,215.0 L 266.5,214.0 L 266.5,213.0 L 266.5,212.0 L 266.5,211.0 L 266.0,210.5 L 265.5,210.0 L 265.0,209.5 L 264.0,209.5 L 263.0,209.5 L 262.0,209.5 L 261.0,209.5 L 260.0,209.5 L 259.0,209.5 L 258.5,209.0 L 259.0,208.5 L 260.0,208.5 L 261.0,208.5 L 262.0,208.5 L 263.0,208.5 L 264.0,208.5 L 265.0,208.5 L 266.0,208.5 L 266.5,209.0 L 267.0,209.5 L 267.5,210.0 L 267.5,211.0 L 267.5,212.0 L 267.5,213.0 L 267.5,214.0 L 267.5,215.0 L 267.5,216.0 L 267.5,217.0 L 267.5,218.0 L 267.5,219.0 L 267.5,220.0 L 267.5,221.0 L 267.5,222.0 L 267.5,223.0 L 267.5,224.0 L 267.5,225.0 L 267.5,226.0 L 267.5,227.0 L 267.5,228.0 L 267.5,229.0 L 267.5,230.0 L 267.5,231.0 L 267.5,232.0 L 267.5,233.0 L 267.5,234.0 L 267.5,235.0 L 267.5,236.0 L 267.5,237.0 L 267.5,238.0 L 267.5,239.0 L 267.5,240.0 L 267.5,241.0 L 267.5,242.0 L 267.5,243.0 L 267.5,244.0 L 267.5,245.0 L 267.5,246.0 L 267.5,247.0 L 267.5,248.0 L 267.5,249.0 L 267.5,250.0 L 267.5,251.0 L 267.5,252.0 L 267.5,253.0 L 267.5,254.0 L 267.5,255.0 L 267.5,256.0 L 267.5,257.0 L 267.5,258.0 L 267.5,259.0 L 267.5,260.0 L 267.5,261.0 L 267.5,262.0 L 267.5,263.0 L 267.5,264.0 L 267.5,265.0 L 267.5,266.0 L 267.5,267.0 L 267.5,268.0 L 267.5,269.0 L 267.5,270.0 L 267.5,271.0 L 267.5,272.0 L 267.5,273.0 L 267.5,274.0 L 267.5,275.0 L 267.5,276.0 L 267.5,277.0 L 267.5,278.0 L 267.5,279.0 L 267.5,280.0 L 267.5,281.0 L 267.5,282.0 L 267.5,283.0 L 267.5,284.0 L 267.5,285.0 L 267.5,286.0 L 267.5,287.0 L 267.5,288.0 L 267.5,289.0 L 267.5,290.0 L 267.5,291.0 L 267.5,292.0 L 267.5,293.0 L 267.5,294.0 L 267.5,295.0 L 267.5,296.0 L 267.5,297.0 L 267.5,298.0 L 267.5,299.0 L 267.5,300.0 L 267.5,301.0 L 267.5,302.0 L 267.5,303.0 L 267.5,304.0 L 267.5,305.0 L 267.5,306.0 L 267.5,307.0 L 267.5,308.0 L 267.5,309.0 L 267.5,310.0 L 267.5,311.0 L 267.5,312.0 L 267.5,313.0 L 267.5,314.0 L 267.5,315.0 L 267.5,316.0 L 267.5,317.0 L 267.5,318.0 L 267.5,319.0 L 267.5,320.0 L 267.5,321.0 L 267.5,322.0 L 267.5,323.0 L 267.5,324.0 L 267.5,325.0 L 267.5,326.0 L 267.5,327.0 L 267.5,328.0 L 267.5,329.0 L 267.5,330.0 L 267.5,331.0 L 267.5,332.0 L 267.5,333.0 L 267.5,334.0 L 267.5,335.0 L 267.5,336.0 L 267.5,337.0 L 267.5,338.0 L 267.5,339.0 L 267.5,340.0 L 267.5,341.0 L 267.5,342.0 L 267.5,343.0 L 267.5,344.0 L 267.5,345.0 L 267.5,346.0 L 267.5,347.0 L 267.5,348.0 L 267.5,349.0 L 267.5,350.0 L 267.5,351.0 L 267.5,352.0 L 267.5,353.0 L 267.5,354.0 L 267.5,355.0 L 267.5,356.0 L 267.5,357.0 L 267.5,358.0 L 267.5,359.0 L 267.5,360.0 L 267.5,361.0 L 267.5,362.0 L 267.5,363.0 L 267.5,364.0 L 267.5,365.0 L 267.5,366.0 L 267.5,367.0 L 267.5,368.0 L 267.5,369.0 L 267.5,370.0 L 267.5,371.0 L 267.5,372.0 L 267.5,373.0 L 267.5,374.0 L 267.5,375.0 L 267.5,376.0 L 267.5,377.0 L 267.5,378.0 L 267.5,379.0 L 267.5,380.0 L 267.5,381.0 L 267.5,382.0 L 267.5,383.0 L 267.5,384.0 L 267.5,385.0 L 267.5,386.0 L 267.5,387.0 L 267.5,388.0 L 267.5,389.0 L 267.5,390.0 L 267.5,391.0 L 267.5,392.0 L 267.5,393.0 L 267.5,394.0 L 267.5,395.0 L 267.5,396.0 L 267.5,397.0 L 267.5,398.0 L 267.5,399.0 L 267.5,400.0 L 267.5,401.0 L 267.5,402.0 L 267.5,403.0 L 267.5,404.0 L 267.5,405.0 L 267.5,406.0 L 267.5,407.0 L 267.5,408.0 L 267.5,409.0 L 267.5,410.0 L 267.5,411.0 L 267.5,412.0 L 267.5,413.0 L 267.5,414.0 L 267.5,415.0 L 267.5,416.0 L 267.5,417.0 L 267.5,418.0 L 267.5,419.0 L 267.5,420.0 L 267.5,421.0 L 267.5,422.0 L 267.5,423.0 L 267.5,424.0 L 267.5,425.0 L 267.5,426.0 L 267.5,427.0 L 267.5,428.0 L 267.5,429.0 L 267.5,430.0 L 267.5,431.0 L 267.5,432.0 L 267.5,433.0 L 267.5,434.0 L 267.5,435.0 L 267.5,436.0 L 267.5,437.0 L 267.5,438.0 L 267.5,439.0 L 267.5,440.0 L 267.5,441.0 L 267.5,442.0 L 267.5,443.0 L 267.5,444.0 L 267.5,445.0 L 267.5,446.0 L 267.5,447.0 L 267.5,448.0 L 267.5,449.0 L 267.5,450.0 L 267.5,451.0 L 267.5,452.0 L 267.5,453.0 L 267.5,454.0 L 267.5,455.0 L 267.5,456.0 L 267.5,457.0 L 267.5,458.0 L 267.5,459.0 L 267.5,460.0 L 267.5,461.0 L 267.5,462.0 L 267.5,463.0 L 267.5,464.0 L 267.5,465.0 L 267.5,466.0 L 267.5,467.0 L 267.5,468.0 L 267.5,469.0 L 267.5,470.0 L 267.5,471.0 L 267.5,472.0 L 267.5,473.0 L 267.5,474.0 L 267.5,475.0 L 267.5,476.0 L 267.5,477.0 L 267.5,478.0 L 267.5,479.0 L 267.5,480.0 L 267.5,481.0 L 267.5,482.0 L 267.5,483.0 L 267.5,484.0 L 267.5,485.0 L 267.5,486.0 L 267.5,487.0 L 267.5,488.0 L 267.5,489.0 L 267.5,490.0 L 267.5,491.0 L 267.5,492.0 L 267.5,493.0 L 267.5,494.0 L 267.5,495.0 L 267.5,496.0 L 267.5,497.0 L 267.0,497.5 Z" stroke="black" fill="none" /><path d="M 257.0,211.5 L 256.0,211.5 L 255.5,211.0 L 256.0,210.5 L 256.5,210.0 L 257.0,209.5 L 258.0,209.5 L 258.5,210.0 L 258.0,210.5 L 257.5,211.0 L 257.0,211.5 Z" stroke="black" fill="none" /><path d="M 121.0,212.5 L 120.0,212.5 L 119.0,212.5 L 118.5,212.0 L 119.0,211.5 L 120.0,211.5 L 120.5,211.0 L 121.0,210.5 L 122.0,210.5 L 122.5,211.0 L 122.0,211.5 L 121.5,212.0 L 121.0,212.5 Z" stroke="black" fill="none" /><path d="M 253.0,213.5 L 252.0,213.5 L 251.5,213.0 L 252.0,212.5 L 252.5,212.0 L 253.0,211.5 L 254.0,211.5 L 255.0,211.5 L 255.5,212.0 L 255.0,212.5 L 254.0,212.5 L 253.5,213.0 L 253.0,213.5 Z" stroke="black" fill="none" /><path d="M 117.0,214.5 L 116.0,214.5 L 115.5,214.0 L 116.0,213.5 L 116.5,213.0 L 117.0,212.5 L 118.0,212.5 L 118.5,213.0 L 118.0,213.5 L 117.5,214.0 L 117.0,214.5 Z" stroke="black" fill="none" /><path d="M 250.0,215.5 L 249.0,215.5 L 248.0,215.5 L 247.5,215.0 L 248.0,214.5 L 249.0,214.5 L 249.5,214.0 L 250.0,213.5 L 251.0,213.5 L 251.5,214.0 L 251.0,214.5 L 250.5,215.0 L 250.0,215.5 Z" stroke="black" fill="none" /><path d="M 111.0,217.5 L 110.0,217.5 L 109.5,217.0 L 110.0,216.5 L 110.5,216.0 L 111.0,215.5 L 112.0,215.5 L 112.5,215.0 L 113.0,214.5 L 114.0,214.5 L 115.0,214.5 L 115.5,215.0 L 115.0,215.5 L 114.0,215.5 L 113.5,216.0 L 113.0,216.5 L 112.0,216.5 L 111.5,217.0 L 111.0,217.5 Z" stroke="black" fill="none" /><path d="M 236.0,222.5 L 235.0,222.5 L 234.5,222.0 L 235.0,221.5 L 235.5,221.0 L 236.0,220.5 L 237.0,220.5 L 237.5,220.0 L 238.0,219.5 L 239.0,219.5 L 239.5,219.0 L 240.0,218.5 L 241.0,218.5 L 241.5,218.0 L 242.0,217.5 L 243.0,217.5 L 243.5,217.0 L 244.0,216.5 L 245.0,216.5 L 245.5,216.0 L 246.0,215.5 L 247.0,215.5 L 247.5,216.0 L 247.0,216.5 L 246.5,217.0 L 246.0,217.5 L 245.0,217.5 L 244.5,218.0 L 244.0,218.5 L 243.0,218.5 L 242.5,219.0 L 242.0,219.5 L 241.0,219.5 L 240.5,220.0 L 240.0,220.5 L 239.0,220.5 L 238.5,221.0 L 238.0,221.5 L 237.0,221.5 L 236.5,222.0 L 236.0,222.5 Z" stroke="black" fill="none" /><path d="M 107.0,219.5 L 106.0,219.5 L 105.5,219.0 L 106.0,218.5 L 106.5,218.0 L 107.0,217.5 L 108.0,217.5 L 109.0,217.5 L 109.5,218.0 L 109.0,218.5 L 108.0,218.5 L 107.5,219.0 L 107.0,219.5 Z" stroke="black" fill="none" /><path d="M 104.0,221.5 L 103.0,221.5 L 102.0,221.5 L 101.5,221.0 L 102.0,220.5 L 103.0,220.5 L 103.5,220.0 L 104.0,219.5 L 105.0,219.5 L 105.5,220.0 L 105.0,220.5 L 104.5,221.0 L 104.0,221.5 Z" stroke="black" fill="none" /><path d="M 100.0,223.5 L 99.0,223.5 L 98.0,223.5 L 97.5,223.0 L 98.0,222.5 L 99.0,222.5 L 99.5,222.0 L 100.0,221.5 L 101.0,221.5 L 101.5,222.0 L 101.0,222.5 L 100.5,223.0 L 100.0,223.5 Z" stroke="black" fill="none" /><path d="M 234.0,223.5 L 233.0,223.5 L 232.5,223.0 L 233.0,222.5 L 234.0,222.5 L 234.5,223.0 L 234.0,223.5 Z" stroke="black" fill="none" /><path d="M 90.0,226.5 L 89.0,226.5 L 88.0,226.5 L 87.5,226.0 L 88.0,225.5 L 89.0,225.5 L 89.5,225.0 L 90.0,224.5 L 91.0,224.5 L 91.5,224.0 L 92.0,223.5 L 93.0,223.5 L 94.0,223.5 L 95.0,223.5 L 96.0,223.5 L 97.0,223.5 L 97.5,224.0 L 97.0,224.5 L 96.0,224.5 L 95.0,224.5 L 94.0,224.5 L 93.0,224.5 L 92.5,225.0 L 92.0,225.5 L 91.0,225.5 L 90.5,226.0 L 90.0,226.5 Z" stroke="black" fill="none" /><path d="M 228.0,228.5 L 227.5,228.0 L 227.5,227.0 L 228.0,226.5 L 228.5,226.0 L 229.0,225.5 L 229.5,225.0 L 230.0,224.5 L 230.5,224.0 L 231.0,223.5 L 232.0,223.5 L 232.5,224.0 L 232.0,224.5 L 231.5,225.0 L 231.0,225.5 L 230.5,226.0 L 230.0,226.5 L 229.5,227.0 L 229.0,227.5 L 228.5,228.0 L 228.0,228.5 Z" stroke="black" fill="none" /><path d="M 87.0,227.5 L 86.0,227.5 L 85.5,227.0 L 86.0,226.5 L 87.0,226.5 L 87.5,227.0 L 87.0,227.5 Z" stroke="black" fill="none" /><path d="M 80.0,231.5 L 79.0,231.5 L 78.5,231.0 L 79.0,230.5 L 79.5,230.0 L 80.0,229.5 L 81.0,229.5 L 81.5,229.0 L 82.0,228.5 L 83.0,228.5 L 83.5,228.0 L 84.0,227.5 L 85.0,227.5 L 85.5,228.0 L 85.0,228.5 L 84.5,229.0 L 84.0,229.5 L 83.0,229.5 L 82.5,230.0 L 82.0,230.5 L 81.0,230.5 L 80.5,231.0 L 80.0,231.5 Z" stroke="black" fill="none" /><path d="M 227.0,229.5 L 226.0,229.5 L 225.5,229.0 L 226.0,228.5 L 227.0,228.5 L 227.5,229.0 L 227.0,229.5 Z" stroke="black" fill="none" /><path d="M 217.0,235.5 L 216.0,235.5 L 215.0,235.5 L 214.5,235.0 L 215.0,234.5 L 216.0,234.5 L 216.5,234.0 L 217.0,233.5 L 218.0,233.5 L 218.5,233.0 L 219.0,232.5 L 219.5,232.0 L 220.0,231.5 L 221.0,231.5 L 221.5,231.0 L 222.0,230.5 L 223.0,230.5 L 223.5,230.0 L 224.0,229.5 L 225.0,229.5 L 225.5,230.0 L 225.0,230.5 L 224.5,231.0 L 224.0,231.5 L 223.0,231.5 L 222.5,232.0 L 222.0,232.5 L 221.0,232.5 L 220.5,233.0 L 220.0,233.5 L 219.5,234.0 L 219.0,234.5 L 218.0,234.5 L 217.5,235.0 L 217.0,235.5 Z" stroke="black" fill="none" /><path d="M 67.0,238.5 L 66.0,238.5 L 65.0,238.5 L 64.5,238.0 L 65.0,237.5 L 66.0,237.5 L 66.5,237.0 L 67.0,236.5 L 68.0,236.5 L 68.5,236.0 L 69.0,235.5 L 69.5,235.0 L 70.0,234.5 L 71.0,234.5 L 72.0,234.5 L 72.5,234.0 L 73.0,233.5 L 73.5,233.0 L 74.0,232.5 L 75.0,232.5 L 75.5,232.0 L 76.0,231.5 L 77.0,231.5 L 78.0,231.5 L 78.5,232.0 L 78.0,232.5 L 77.0,232.5 L 76.5,233.0 L 76.0,233.5 L 75.0,233.5 L 74.5,234.0 L 74.0,234.5 L 73.5,235.0 L 73.0,235.5 L 72.0,235.5 L 71.0,235.5 L 70.5,236.0 L 70.0,236.5 L 69.5,237.0 L 69.0,237.5 L 68.0,237.5 L 67.5,238.0 L 67.0,238.5 Z" stroke="black" fill="none" /><path d="M 213.0,237.5 L 212.0,237.5 L 211.5,237.0 L 212.0,236.5 L 212.5,236.0 L 213.0,235.5 L 214.0,235.5 L 214.5,236.0 L 214.0,236.5 L 213.5,237.0 L 213.0,237.5 Z" stroke="black" fill="none" /><path d="M 209.0,239.5 L 208.0,239.5 L 207.5,239.0 L 208.0,238.5 L 208.5,238.0 L 209.0,237.5 L 210.0,237.5 L 211.0,237.5 L 211.5,238.0 L 211.0,238.5 L 210.0,238.5 L 209.5,239.0 L 209.0,239.5 Z" stroke="black" fill="none" /><path d="M 63.0,240.5 L 62.0,240.5 L 61.0,240.5 L 60.5,240.0 L 61.0,239.5 L 62.0,239.5 L 62.5,239.0 L 63.0,238.5 L 64.0,238.5 L 64.5,239.0 L 64.0,239.5 L 63.5,240.0 L 63.0,240.5 Z" stroke="black" fill="none" /><path d="M 207.0,240.5 L 206.0,240.5 L 205.5,240.0 L 206.0,239.5 L 207.0,239.5 L 207.5,240.0 L 207.0,240.5 Z" stroke="black" fill="none" /><path d="M 57.0,243.5 L 56.0,243.5 L 55.0,243.5 L 54.5,243.0 L 55.0,242.5 L 56.0,242.5 L 56.5,242.0 L 57.0,241.5 L 57.5,241.0 L 58.0,240.5 L 59.0,240.5 L 60.0,240.5 L 60.5,241.0 L 60.0,241.5 L 59.0,241.5 L 58.5,242.0 L 58.0,242.5 L 57.5,243.0 L 57.0,243.5 Z" stroke="black" fill="none" /><path d="M 205.0,241.5 L 204.0,241.5 L 203.5,241.0 L 204.0,240.5 L 205.0,240.5 L 205.5,241.0 L 205.0,241.5 Z" stroke="black" fill="none" /><path d="M 198.0,245.5 L 197.0,245.5 L 196.5,245.0 L 197.0,244.5 L 197.5,244.0 L 198.0,243.5 L 199.0,243.5 L 199.5,243.0 L 200.0,242.5 L 201.0,242.5 L 201.5,242.0 L 202.0,241.5 L 203.0,241.5 L 203.5,242.0 L 203.0,242.5 L 202.5,243.0 L 202.0,243.5 L 201.0,243.5 L 200.5,244.0 L 200.0,244.5 L 199.0,244.5 L 198.5,245.0 L 198.0,245.5 Z" stroke="black" fill="none" /><path d="M 54.0,244.5 L 53.0,244.5 L 52.5,244.0 L 53.0,243.5 L 54.0,243.5 L 54.5,244.0 L 54.0,244.5 Z" stroke="black" fill="none" /><path d="M 51.0,246.5 L 50.0,246.5 L 49.0,246.5 L 48.5,246.0 L 49.0,245.5 L 50.0,245.5 L 50.5,245.0 L 51.0,244.5 L 52.0,244.5 L 52.5,245.0 L 52.0,245.5 L 51.5,246.0 L 51.0,246.5 Z" stroke="black" fill="none" /><path d="M 191.0,249.5 L 190.0,249.5 L 189.0,249.5 L 188.5,249.0 L 189.0,248.5 L 190.0,248.5 L 190.5,248.0 L 191.0,247.5 L 191.5,247.0 L 192.0,246.5 L 193.0,246.5 L 193.5,246.0 L 194.0,245.5 L 195.0,245.5 L 196.0,245.5 L 196.5,246.0 L 196.0,246.5 L 195.0,246.5 L 194.5,247.0 L 194.0,247.5 L 193.0,247.5 L 192.5,248.0 L 192.0,248.5 L 191.5,249.0 L 191.0,249.5 Z" stroke="black" fill="none" /><path d="M 47.0,248.5 L 46.0,248.5 L 45.5,248.0 L 46.0,247.5 L 46.5,247.0 L 47.0,246.5 L 48.0,246.5 L 48.5,247.0 L 48.0,247.5 L 47.5,248.0 L 47.0,248.5 Z" stroke="black" fill="none" /><path d="M 45.0,249.5 L 44.0,249.5 L 43.0,249.5 L 42.0,249.5 L 41.0,249.5 L 40.5,249.0 L 41.0,248.5 L 42.0,248.5 L 43.0,248.5 L 44.0,248.5 L 45.0,248.5 L 45.5,249.0 L 45.0,249.5 Z" stroke="black" fill="none" /><path d="M 34.0,253.5 L 33.0,253.5 L 32.5,253.0 L 33.0,252.5 L 33.5,252.0 L 34.0,251.5 L 35.0,251.5 L 35.5,251.0 L 36.0,250.5 L 37.0,250.5 L 37.5,250.0 L 38.0,249.5 L 39.0,249.5 L 40.0,249.5 L 40.5,250.0 L 40.0,250.5 L 39.0,250.5 L 38.5,251.0 L 38.0,251.5 L 37.0,251.5 L 36.5,252.0 L 36.0,252.5 L 35.0,252.5 L 34.5,253.0 L 34.0,253.5 Z" stroke="black" fill="none" /><path d="M 185.0,252.5 L 184.0,252.5 L 183.0,252.5 L 182.5,252.0 L 183.0,251.5 L 184.0,251.5 L 184.5,251.0 L 185.0,250.5 L 186.0,250.5 L 186.5,250.0 L 187.0,249.5 L 188.0,249.5 L 188.5,250.0 L 188.0,250.5 L 187.5,251.0 L 187.0,251.5 L 186.0,251.5 L 185.5,252.0 L 185.0,252.5 Z" stroke="black" fill="none" /><path d="M 175.0,259.5 L 174.0,259.5 L 173.5,259.0 L 174.0,258.5 L 174.5,258.0 L 175.0,257.5 L 176.0,257.5 L 176.5,257.0 L 177.0,256.5 L 178.0,256.5 L 178.5,256.0 L 179.0,255.5 L 179.5,255.0 L 180.0,254.5 L 180.5,254.0 L 181.0,253.5 L 181.5,253.0 L 182.0,252.5 L 182.5,253.0 L 182.5,254.0 L 182.0,254.5 L 181.5,255.0 L 181.0,255.5 L 180.5,256.0 L 180.0,256.5 L 179.5,257.0 L 179.0,257.5 L 178.0,257.5 L 177.5,258.0 L 177.0,258.5 L 176.0,258.5 L 175.5,259.0 L 175.0,259.5 Z" stroke="black" fill="none" /><path d="M 32.0,254.5 L 31.0,254.5 L 30.5,254.0 L 31.0,253.5 L 32.0,253.5 L 32.5,254.0 L 32.0,254.5 Z" stroke="black" fill="none" /><path d="M 25.0,264.5 L 24.5,264.0 L 24.5,263.0 L 24.5,262.0 L 24.5,261.0 L 24.5,260.0 L 24.5,259.0 L 24.5,258.0 L 24.5,257.0 L 25.0,256.5 L 25.5,256.0 L 26.0,255.5 L 26.5,255.0 L 27.0,254.5 L 28.0,254.5 L 29.0,254.5 L 30.0,254.5 L 30.5,255.0 L 30.0,255.5 L 29.0,255.5 L 28.0,255.5 L 27.5,256.0 L 27.0,256.5 L 26.5,257.0 L 26.0,257.5 L 25.5,258.0 L 25.5,259.0 L 25.5,260.0 L 25.5,261.0 L 25.5,262.0 L 25.5,263.0 L 25.5,264.0 L 25.0,264.5 Z" stroke="black" fill="none" /><path d="M 165.0,265.5 L 164.0,265.5 L 163.5,265.0 L 164.0,264.5 L 164.5,264.0 L 165.0,263.5 L 166.0,263.5 L 166.5,263.0 L 167.0,262.5 L 168.0,262.5 L 168.5,262.0 L 169.0,261.5 L 170.0,261.5 L 170.5,261.0 L 171.0,260.5 L 171.5,260.0 L 172.0,259.5 L 173.0,259.5 L 173.5,260.0 L 173.0,260.5 L 172.5,261.0 L 172.0,261.5 L 171.5,262.0 L 171.0,262.5 L 170.0,262.5 L 169.5,263.0 L 169.0,263.5 L 168.0,263.5 L 167.5,264.0 L 167.0,264.5 L 166.0,264.5 L 165.5,265.0 L 165.0,265.5 Z" stroke="black" fill="none" /><path d="M 32.0,271.5 L 31.0,271.5 L 30.5,271.0 L 30.5,270.0 L 30.5,269.0 L 30.0,268.5 L 29.5,268.0 L 29.0,267.5 L 28.5,267.0 L 28.0,266.5 L 27.0,266.5 L 26.0,266.5 L 25.5,266.0 L 25.5,265.0 L 26.0,264.5 L 26.5,265.0 L 27.0,265.5 L 28.0,265.5 L 29.0,265.5 L 29.5,266.0 L 30.0,266.5 L 30.5,267.0 L 31.0,267.5 L 31.5,268.0 L 31.5,269.0 L 31.5,270.0 L 32.0,270.5 L 32.5,271.0 L 32.0,271.5 Z" stroke="black" fill="none" /><path d="M 158.0,269.5 L 157.0,269.5 L 156.0,269.5 L 155.5,269.0 L 156.0,268.5 L 157.0,268.5 L 157.5,268.0 L 158.0,267.5 L 159.0,267.5 L 159.5,267.0 L 160.0,266.5 L 160.5,266.0 L 161.0,265.5 L 162.0,265.5 L 163.0,265.5 L 163.5,266.0 L 163.0,266.5 L 162.0,266.5 L 161.5,267.0 L 161.0,267.5 L 160.5,268.0 L 160.0,268.5 L 159.0,268.5 L 158.5,269.0 L 158.0,269.5 Z" stroke="black" fill="none" /><path d="M 154.0,271.5 L 153.0,271.5 L 152.5,271.0 L 153.0,270.5 L 153.5,270.0 L 154.0,269.5 L 155.0,269.5 L 155.5,270.0 L 155.0,270.5 L 154.5,271.0 L 154.0,271.5 Z" stroke="black" fill="none" /><path d="M 36.0,275.5 L 35.5,275.0 L 35.5,274.0 L 35.0,273.5 L 34.5,273.0 L 34.0,272.5 L 33.0,272.5 L 32.5,272.0 L 33.0,271.5 L 34.0,271.5 L 35.0,271.5 L 35.5,272.0 L 36.0,272.5 L 36.5,273.0 L 36.5,274.0 L 36.5,275.0 L 36.0,275.5 Z" stroke="black" fill="none" /><path d="M 148.0,274.5 L 147.0,274.5 L 146.5,274.0 L 147.0,273.5 L 147.5,273.0 L 148.0,272.5 L 149.0,272.5 L 149.5,272.0 L 150.0,271.5 L 151.0,271.5 L 152.0,271.5 L 152.5,272.0 L 152.0,272.5 L 151.0,272.5 L 150.5,273.0 L 150.0,273.5 L 149.0,273.5 L 148.5,274.0 L 148.0,274.5 Z" stroke="black" fill="none" /><path d="M 133.0,282.5 L 132.0,282.5 L 131.5,282.0 L 132.0,281.5 L 132.5,281.0 L 133.0,280.5 L 134.0,280.5 L 134.5,280.0 L 135.0,279.5 L 136.0,279.5 L 136.5,279.0 L 137.0,278.5 L 138.0,278.5 L 138.5,278.0 L 139.0,277.5 L 140.0,277.5 L 140.5,277.0 L 141.0,276.5 L 142.0,276.5 L 142.5,276.0 L 143.0,275.5 L 143.5,275.0 L 144.0,274.5 L 145.0,274.5 L 146.0,274.5 L 146.5,275.0 L 146.0,275.5 L 145.0,275.5 L 144.5,276.0 L 144.0,276.5 L 143.5,277.0 L 143.0,277.5 L 142.0,277.5 L 141.5,278.0 L 141.0,278.5 L 140.0,278.5 L 139.5,279.0 L 139.0,279.5 L 138.0,279.5 L 137.5,280.0 L 137.0,280.5 L 136.0,280.5 L 135.5,281.0 L 135.0,281.5 L 134.0,281.5 L 133.5,282.0 L 133.0,282.5 Z" stroke="black" fill="none" /><path d="M 41.0,280.5 L 40.5,280.0 L 40.5,279.0 L 40.0,278.5 L 39.0,278.5 L 38.5,278.0 L 38.0,277.5 L 37.0,277.5 L 36.5,277.0 L 36.5,276.0 L 37.0,275.5 L 37.5,276.0 L 38.0,276.5 L 39.0,276.5 L 39.5,277.0 L 40.0,277.5 L 41.0,277.5 L 41.5,278.0 L 41.5,279.0 L 41.5,280.0 L 41.0,280.5 Z" stroke="black" fill="none" /><path d="M 55.0,294.5 L 54.0,294.5 L 53.5,294.0 L 53.0,293.5 L 52.5,293.0 L 52.0,292.5 L 51.5,292.0 L 51.5,291.0 L 51.0,290.5 L 50.5,290.0 L 50.0,289.5 L 49.0,289.5 L 48.5,289.0 L 48.0,288.5 L 47.5,288.0 L 47.0,287.5 L 46.5,287.0 L 46.5,286.0 L 46.0,285.5 L 45.5,285.0 L 45.0,284.5 L 44.5,284.0 L 44.0,283.5 L 43.0,283.5 L 42.5,283.0 L 42.0,282.5 L 41.5,282.0 L 41.5,281.0 L 42.0,280.5 L 42.5,281.0 L 43.0,281.5 L 43.5,282.0 L 44.0,282.5 L 45.0,282.5 L 45.5,283.0 L 46.0,283.5 L 46.5,284.0 L 47.0,284.5 L 47.5,285.0 L 47.5,286.0 L 48.0,286.5 L 48.5,287.0 L 49.0,287.5 L 49.5,288.0 L 50.0,288.5 L 51.0,288.5 L 51.5,289.0 L 52.0,289.5 L 52.5,290.0 L 52.5,291.0 L 53.0,291.5 L 53.5,292.0 L 54.0,292.5 L 54.5,293.0 L 55.0,293.5 L 55.5,294.0 L 55.0,294.5 Z" stroke="black" fill="none" /><path d="M 129.0,284.5 L 128.0,284.5 L 127.5,284.0 L 128.0,283.5 L 128.5,283.0 L 129.0,282.5 L 130.0,282.5 L 131.0,282.5 L 131.5,283.0 L 131.0,283.5 L 130.0,283.5 L 129.5,284.0 L 129.0,284.5 Z" stroke="black" fill="none" /><path d="M 126.0,286.5 L 125.0,286.5 L 124.0,286.5 L 123.5,286.0 L 124.0,285.5 L 125.0,285.5 L 125.5,285.0 L 126.0,284.5 L 127.0,284.5 L 127.5,285.0 L 127.0,285.5 L 126.5,286.0 L 126.0,286.5 Z" stroke="black" fill="none" /><path d="M 116.0,291.5 L 115.0,291.5 L 114.5,291.0 L 115.0,290.5 L 115.5,290.0 L 116.0,289.5 L 117.0,289.5 L 117.5,289.0 L 118.0,288.5 L 119.0,288.5 L 119.5,288.0 L 120.0,287.5 L 121.0,287.5 L 121.5,287.0 L 122.0,286.5 L 123.0,286.5 L 123.5,287.0 L 123.0,287.5 L 122.5,288.0 L 122.0,288.5 L 121.0,288.5 L 120.5,289.0 L 120.0,289.5 L 119.0,289.5 L 118.5,290.0 L 118.0,290.5 L 117.0,290.5 L 116.5,291.0 L 116.0,291.5 Z" stroke="black" fill="none" /><path d="M 112.0,293.5 L 111.0,293.5 L 110.5,293.0 L 111.0,292.5 L 111.5,292.0 L 112.0,291.5 L 113.0,291.5 L 114.0,291.5 L 114.5,292.0 L 114.0,292.5 L 113.0,292.5 L 112.5,293.0 L 112.0,293.5 Z" stroke="black" fill="none" /><path d="M 110.0,294.5 L 109.0,294.5 L 108.5,294.0 L 109.0,293.5 L 110.0,293.5 L 110.5,294.0 L 110.0,294.5 Z" stroke="black" fill="none" /><path d="M 57.0,296.5 L 56.5,296.0 L 56.0,295.5 L 55.5,295.0 L 56.0,294.5 L 57.0,294.5 L 57.5,295.0 L 57.5,296.0 L 57.0,296.5 Z" stroke="black" fill="none" /><path d="M 106.0,296.5 L 105.0,296.5 L 104.5,296.0 L 105.0,295.5 L 105.5,295.0 L 106.0,294.5 L 107.0,294.5 L 108.0,294.5 L 108.5,295.0 L 108.0,295.5 L 107.0,295.5 L 106.5,296.0 L 106.0,296.5 Z" stroke="black" fill="none" /><path d="M 61.0,300.5 L 60.0,300.5 L 59.0,300.5 L 58.5,300.0 L 58.0,299.5 L 57.5,299.0 L 57.5,298.0 L 57.5,297.0 L 58.0,296.5 L 58.5,297.0 L 58.5,298.0 L 59.0,298.5 L 59.5,299.0 L 60.0,299.5 L 61.0,299.5 L 61.5,300.0 L 61.0,300.5 Z" stroke="black" fill="none" /><path d="M 98.0,300.5 L 97.0,300.5 L 96.0,300.5 L 95.5,300.0 L 96.0,299.5 L 97.0,299.5 L 97.5,299.0 L 98.0,298.5 L 99.0,298.5 L 99.5,298.0 L 100.0,297.5 L 101.0,297.5 L 101.5,297.0 L 102.0,296.5 L 103.0,296.5 L 104.0,296.5 L 104.5,297.0 L 104.0,297.5 L 103.0,297.5 L 102.5,298.0 L 102.0,298.5 L 101.0,298.5 L 100.5,299.0 L 100.0,299.5 L 99.0,299.5 L 98.5,300.0 L 98.0,300.5 Z" stroke="black" fill="none" /><path d="M 63.0,303.5 L 62.5,303.0 L 62.5,302.0 L 62.0,301.5 L 61.5,301.0 L 62.0,300.5 L 63.0,300.5 L 63.5,301.0 L 63.5,302.0 L 63.5,303.0 L 63.0,303.5 Z" stroke="black" fill="none" /><path d="M 94.0,302.5 L 93.0,302.5 L 92.0,302.5 L 91.5,302.0 L 92.0,301.5 L 93.0,301.5 L 93.5,301.0 L 94.0,300.5 L 95.0,300.5 L 95.5,301.0 L 95.0,301.5 L 94.5,302.0 L 94.0,302.5 Z" stroke="black" fill="none" /><path d="M 86.0,304.5 L 85.0,304.5 L 84.5,304.0 L 85.0,303.5 L 85.5,303.0 L 86.0,302.5 L 87.0,302.5 L 88.0,302.5 L 89.0,302.5 L 90.0,302.5 L 91.0,302.5 L 91.5,303.0 L 91.0,303.5 L 90.0,303.5 L 89.0,303.5 L 88.0,303.5 L 87.0,303.5 L 86.5,304.0 L 86.0,304.5 Z" stroke="black" fill="none" /><path d="M 70.0,308.5 L 69.0,308.5 L 68.5,308.0 L 68.0,307.5 L 67.0,307.5 L 66.5,307.0 L 66.0,306.5 L 65.0,306.5 L 64.5,306.0 L 64.0,305.5 L 63.5,305.0 L 63.5,304.0 L 64.0,303.5 L 64.5,304.0 L 65.0,304.5 L 65.5,305.0 L 66.0,305.5 L 67.0,305.5 L 67.5,306.0 L 68.0,306.5 L 69.0,306.5 L 69.5,307.0 L 70.0,307.5 L 70.5,308.0 L 70.0,308.5 Z" stroke="black" fill="none" /><path d="M 83.0,306.5 L 82.0,306.5 L 81.0,306.5 L 80.5,306.0 L 81.0,305.5 L 82.0,305.5 L 82.5,305.0 L 83.0,304.5 L 84.0,304.5 L 84.5,305.0 L 84.0,305.5 L 83.5,306.0 L 83.0,306.5 Z" stroke="black" fill="none" /><path d="M 77.0,309.5 L 76.0,309.5 L 75.0,309.5 L 74.0,309.5 L 73.0,309.5 L 72.0,309.5 L 71.0,309.5 L 70.5,309.0 L 71.0,308.5 L 72.0,308.5 L 73.0,308.5 L 74.0,308.5 L 75.0,308.5 L 76.0,308.5 L 76.5,308.0 L 77.0,307.5 L 78.0,307.5 L 78.5,307.0 L 79.0,306.5 L 80.0,306.5 L 80.5,307.0 L 80.0,307.5 L 79.5,308.0 L 79.0,308.5 L 78.0,308.5 L 77.5,309.0 L 77.0,309.5 Z" stroke="black" fill="none" /><path d="M 369.0,499.5 L 368.0,499.5 L 367.0,499.5 L 366.0,499.5 L 365.0,499.5 L 364.0,499.5 L 363.0,499.5 L 362.0,499.5 L 361.0,499.5 L 360.0,499.5 L 359.0,499.5 L 358.0,499.5 L 357.0,499.5 L 356.0,499.5 L 355.0,499.5 L 354.0,499.5 L 353.0,499.5 L 352.0,499.5 L 351.0,499.5 L 350.0,499.5 L 349.0,499.5 L 348.0,499.5 L 347.0,499.5 L 346.0,499.5 L 345.0,499.5 L 344.0,499.5 L 343.0,499.5 L 342.0,499.5 L 341.0,499.5 L 340.0,499.5 L 339.0,499.5 L 338.0,499.5 L 337.0,499.5 L 336.0,499.5 L 335.0,499.5 L 334.0,499.5 L 333.0,499.5 L 332.0,499.5 L 331.0,499.5 L 330.0,499.5 L 329.0,499.5 L 328.0,499.5 L 327.0,499.5 L 326.0,499.5 L 325.0,499.5 L 324.0,499.5 L 323.0,499.5 L 322.0,499.5 L 321.0,499.5 L 320.0,499.5 L 319.0,499.5 L 318.0,499.5 L 317.0,499.5 L 316.0,499.5 L 315.0,499.5 L 314.0,499.5 L 313.0,499.5 L 312.0,499.5 L 311.0,499.5 L 310.0,499.5 L 309.0,499.5 L 308.0,499.5 L 307.0,499.5 L 306.0,499.5 L 305.0,499.5 L 304.0,499.5 L 303.0,499.5 L 302.0,499.5 L 301.0,499.5 L 300.0,499.5 L 299.0,499.5 L 298.0,499.5 L 297.0,499.5 L 296.0,499.5 L 295.0,499.5 L 294.0,499.5 L 293.0,499.5 L 292.0,499.5 L 291.0,499.5 L 290.0,499.5 L 289.0,499.5 L 288.0,499.5 L 287.0,499.5 L 286.0,499.5 L 285.0,499.5 L 284.0,499.5 L 283.0,499.5 L 282.0,499.5 L 281.0,499.5 L 280.0,499.5 L 279.0,499.5 L 278.0,499.5 L 277.0,499.5 L 276.0,499.5 L 275.0,499.5 L 274.0,499.5 L 273.0,499.5 L 272.0,499.5 L 271.0,499.5 L 270.0,499.5 L 269.0,499.5 L 268.0,499.5 L 267.5,499.0 L 267.5,498.0 L 268.0,497.5 L 268.5,498.0 L 269.0,498.5 L 270.0,498.5 L 271.0,498.5 L 272.0,498.5 L 273.0,498.5 L 274.0,498.5 L 275.0,498.5 L 276.0,498.5 L 277.0,498.5 L 278.0,498.5 L 279.0,498.5 L 280.0,498.5 L 281.0,498.5 L 282.0,498.5 L 283.0,498.5 L 284.0,498.5 L 285.0,498.5 L 286.0,498.5 L 287.0,498.5 L 288.0,498.5 L 289.0,498.5 L 290.0,498.5 L 291.0,498.5 L 292.0,498.5 L 293.0,498.5 L 294.0,498.5 L 295.0,498.5 L 296.0,498.5 L 297.0,498.5 L 298.0,498.5 L 299.0,498.5 L 300.0,498.5 L 301.0,498.5 L 302.0,498.5 L 303.0,498.5 L 304.0,498.5 L 305.0,498.5 L 306.0,498.5 L 307.0,498.5 L 308.0,498.5 L 309.0,498.5 L 310.0,498.5 L 311.0,498.5 L 312.0,498.5 L 313.0,498.5 L 314.0,498.5 L 315.0,498.5 L 316.0,498.5 L 317.0,498.5 L 318.0,498.5 L 319.0,498.5 L 320.0,498.5 L 321.0,498.5 L 322.0,498.5 L 323.0,498.5 L 324.0,498.5 L 325.0,498.5 L 326.0,498.5 L 327.0,498.5 L 328.0,498.5 L 329.0,498.5 L 330.0,498.5 L 331.0,498.5 L 332.0,498.5 L 333.0,498.5 L 334.0,498.5 L 335.0,498.5 L 336.0,498.5 L 337.0,498.5 L 338.0,498.5 L 339.0,498.5 L 340.0,498.5 L 341.0,498.5 L 342.0,498.5 L 343.0,498.5 L 344.0,498.5 L 345.0,498.5 L 346.0,498.5 L 347.0,498.5 L 348.0,498.5 L 349.0,498.5 L 350.0,498.5 L 351.0,498.5 L 352.0,498.5 L 353.0,498.5 L 354.0,498.5 L 355.0,498.5 L 356.0,498.5 L 357.0,498.5 L 358.0,498.5 L 359.0,498.5 L 360.0,498.5 L 361.0,498.5 L 362.0,498.5 L 363.0,498.5 L 364.0,498.5 L 365.0,498.5 L 366.0,498.5 L 367.0,498.5 L 368.0,498.5 L 369.0,498.5 L 369.5,499.0 L 369.0,499.5 Z" stroke="black" fill="none" /></svg>