<?xml version="1.0" encoding="UTF-8" standalone="no"?>
<!DOCTYPE svg PUBLIC "-//W3C//DTD SVG 1.1//EN" "http://www.w3.org/Graphics/SVG/1.1/DTD/svg11.dtd">
<svg xmlns="http://www.w3.org/2000/svg" version="1.1" viewBox="0.00 0.00 512.00 512.00">
<g stroke-width="2.00" fill="none" stroke-linecap="butt">
<path stroke="#7c7879" vector-effect="non-scaling-stroke" d="
  M 305.62 80.87
  Q 300.90 68.53 295.25 56.53
  Q 294.99 55.96 294.61 55.80
  A 0.69 0.68 -71.2 0 0 293.68 56.26
  C 286.15 84.45 301.00 119.42 323.93 136.49
  Q 324.34 136.79 324.12 137.25
  Q 318.14 149.99 315.34 163.72
  C 314.33 168.64 313.88 175.17 312.98 180.90
  Q 312.90 181.43 312.40 181.59
  Q 296.14 186.71 286.32 200.53
  A 1.23 1.23 0.0 0 0 286.65 202.27
  C 289.27 203.98 292.14 203.59 295.56 203.10
  C 302.84 202.06 308.15 198.33 313.67 194.65
  Q 314.30 194.22 314.25 194.98
  Q 313.18 210.13 309.45 224.84
  Q 309.34 225.30 308.90 225.49
  C 298.90 229.77 294.93 238.28 291.59 248.41
  Q 291.42 248.94 291.84 249.30
  Q 295.83 252.81 301.22 253.50
  Q 302.63 253.68 302.44 255.09
  C 299.87 274.29 297.20 292.71 286.88 309.11
  Q 282.78 315.61 278.67 322.04
  A 0.62 0.49 -40.3 0 1 277.65 322.07
  L 269.30 290.47
  A 1.10 1.10 0.0 0 0 267.28 290.21
  Q 260.01 302.91 256.71 317.33
  C 254.02 329.07 254.17 338.91 263.15 346.96
  A 2.28 2.27 35.3 0 1 263.63 349.73
  C 256.70 362.52 249.90 379.09 254.89 393.81
  Q 259.45 407.25 273.90 407.59
  C 292.45 408.03 316.80 387.78 322.13 370.28
  Q 322.28 369.79 322.77 369.95
  C 335.82 374.05 346.47 369.76 356.10 360.84
  Q 366.62 351.08 378.32 338.37
  A 0.51 0.51 0.0 0 0 378.14 337.55
  Q 375.81 336.56 372.49 336.74
  Q 351.55 337.81 333.97 346.52
  Q 333.46 346.77 333.42 346.21
  Q 332.49 334.26 333.39 322.31
  Q 333.47 321.22 334.44 320.75
  C 349.95 313.14 365.39 302.95 377.05 290.41
  C 391.86 274.49 401.86 253.72 407.80 232.93
  C 411.70 219.30 412.99 205.22 412.68 191.09
  A 0.38 0.38 0.0 0 1 413.40 190.92
  Q 416.78 198.16 422.00 204.02
  C 424.00 206.27 429.29 209.72 430.11 204.82
  C 432.81 188.71 427.15 184.72 412.55 182.01
  Q 412.03 181.92 411.97 181.39
  Q 408.54 154.33 392.81 132.53
  C 386.20 123.38 378.00 112.86 366.82 109.20
  C 357.87 106.28 350.49 111.49 342.12 115.35
  Q 341.69 115.55 341.31 115.24
  Q 329.44 105.35 323.75 93.25
  C 318.33 81.73 316.38 72.54 312.38 62.09
  A 1.01 1.01 0.0 0 0 310.79 61.67
  C 306.85 64.94 306.02 76.05 305.97 80.80
  A 0.18 0.18 0.0 0 1 305.62 80.87"
/>
<path stroke="#7c7879" vector-effect="non-scaling-stroke" d="
  M 103.26 269.88
  A 0.36 0.35 44.5 0 1 103.88 269.88
  C 109.16 279.18 116.29 293.49 116.98 304.28
  Q 117.01 304.80 116.51 304.95
  C 108.16 307.50 107.75 329.34 107.77 336.45
  Q 107.77 336.92 108.24 336.86
  Q 119.70 335.39 123.77 324.79
  Q 123.86 324.56 123.97 324.79
  C 126.32 330.19 129.02 335.94 130.56 341.12
  C 139.30 370.65 130.67 403.30 113.78 428.51
  Q 113.50 428.93 113.96 429.14
  C 117.28 430.62 124.67 426.50 128.98 424.26
  Q 129.46 424.01 129.62 424.53
  Q 130.12 426.17 129.76 426.96
  Q 126.75 433.77 124.46 441.92
  C 121.65 451.90 125.31 462.86 134.83 467.56
  Q 135.33 467.81 135.56 467.30
  Q 137.10 463.82 137.50 460.00
  C 139.80 437.86 141.14 403.33 158.69 386.89
  Q 199.18 348.97 198.20 292.73
  Q 198.19 292.02 198.78 292.42
  C 207.19 297.99 214.38 301.63 224.62 298.94
  A 0.63 0.62 69.8 0 0 225.02 298.06
  C 219.07 285.54 207.81 273.06 194.64 267.83
  Q 194.28 267.69 194.17 267.31
  L 188.55 248.36
  A 0.16 0.16 0.0 0 1 188.80 248.18
  Q 189.08 248.37 189.22 248.69
  Q 189.42 249.15 189.82 249.44
  C 195.96 254.04 200.04 257.52 208.25 255.61
  C 210.85 255.01 223.88 250.96 221.45 246.78
  C 219.61 243.63 217.01 242.82 212.93 241.23
  Q 200.96 236.57 188.97 231.97
  Q 187.01 231.22 182.92 230.97
  A 1.18 1.18 0.0 0 0 182.05 231.28
  Q 180.49 232.72 179.10 230.93
  C 162.22 209.17 142.11 188.64 114.27 182.19
  C 102.58 179.48 87.68 181.36 84.90 195.59
  C 81.13 214.91 88.35 238.95 94.88 257.12
  Q 95.05 257.60 94.74 258.01
  C 83.49 272.77 72.23 293.03 84.71 310.55
  Q 85.82 312.11 88.04 311.69
  A 1.50 1.49 -71.7 0 0 88.79 311.31
  Q 91.83 308.43 92.72 304.18
  C 95.03 293.11 97.93 279.90 103.26 269.88"
/>
<path stroke="#7c7879" vector-effect="non-scaling-stroke" d="
  M 409.58 503.01
  L 405.53 509.74
  A 0.25 0.25 0.0 0 0 405.77 510.11
  L 410.26 509.62
  Q 410.83 509.56 410.82 508.99
  L 410.72 503.32
  A 0.62 0.61 60.0 0 0 409.58 503.01"
/>
<path stroke="#7c7879" vector-effect="non-scaling-stroke" d="
  M 455.86 509.32
  Q 456.04 509.38 456.22 509.36
  Q 456.75 509.33 456.75 508.80
  L 456.75 503.88
  Q 456.75 503.25 456.12 503.25
  L 455.39 503.25
  Q 454.83 503.25 454.80 503.81
  L 454.50 508.66
  Q 454.49 508.86 454.67 508.94
  Q 454.80 509.00 454.94 509.03
  Q 455.20 509.09 455.86 509.32"
/>
<path stroke="#7c7879" vector-effect="non-scaling-stroke" d="
  M 429.31 509.69
  L 430.39 509.76
  A 0.23 0.23 0.0 0 0 430.63 509.54
  L 430.78 507.29
  A 3.47 0.62 -86.3 0 0 430.38 503.79
  L 430.08 503.77
  A 3.47 0.62 -86.3 0 0 429.24 507.19
  L 429.09 509.44
  A 0.23 0.23 0.0 0 0 429.31 509.69"
/>
<path stroke="#7c7879" vector-effect="non-scaling-stroke" d="
  M 448.94 509.51
  L 449.06 503.99
  A 0.17 0.17 0.0 0 0 448.90 503.82
  L 448.81 503.81
  A 2.77 1.40 -88.7 0 0 447.34 506.55
  L 447.34 506.87
  A 2.77 1.40 -88.7 0 0 448.67 509.67
  L 448.76 509.67
  A 0.17 0.17 0.0 0 0 448.94 509.51"
/>
<path stroke="#7c7879" vector-effect="non-scaling-stroke" d="
  M 460.38 505.89
  A 1.08 1.07 -76.4 0 1 461.45 505.23
  L 462.69 505.33
  A 0.70 0.69 -84.2 0 1 463.33 506.12
  L 462.99 508.68
  A 0.64 0.64 0.0 0 0 463.68 509.40
  L 465.77 509.19
  Q 466.19 509.15 466.03 508.77
  Q 465.53 507.53 466.12 506.15
  A 0.76 0.76 0.0 0 0 465.59 505.11
  L 459.89 503.83
  Q 459.11 503.65 459.09 504.45
  L 459.00 509.24
  Q 458.98 509.94 459.65 509.70
  L 461.84 508.91
  A 0.31 0.31 0.0 0 0 461.73 508.31
  Q 459.37 508.36 460.38 505.89"
/>
<path stroke="#7c7879" vector-effect="non-scaling-stroke" d="
  M 413.52 509.91
  L 414.70 509.95
  A 0.22 0.22 0.0 0 0 414.93 509.73
  L 414.93 509.61
  A 5.34 0.74 -88.4 0 0 414.34 504.25
  L 414.20 504.25
  A 5.34 0.74 -88.4 0 0 413.31 509.57
  L 413.31 509.69
  A 0.22 0.22 0.0 0 0 413.52 509.91"
/>
<path stroke="#7c7879" vector-effect="non-scaling-stroke" d="
  M 419.6747 510.1000
  A 2.92 0.68 90.3 0 0 420.3700 507.1836
  A 2.92 0.68 90.3 0 0 419.7053 504.2600
  A 2.92 0.68 90.3 0 0 419.0100 507.1764
  A 2.92 0.68 90.3 0 0 419.6747 510.1000"
/>
<path stroke="#7c7879" vector-effect="non-scaling-stroke" d="
  M 424.24 504.61
  C 421.87 505.29 421.45 507.16 422.05 509.28
  A 1.48 1.48 0.0 0 0 424.92 508.59
  Q 424.58 506.80 424.79 505.07
  Q 424.87 504.43 424.24 504.61"
/>
<path stroke="#7c7879" vector-effect="non-scaling-stroke" d="
  M 468.75 506.23
  A 0.92 0.92 0.0 0 1 470.57 506.06
  Q 470.87 507.65 470.43 509.27
  A 0.46 0.45 -3.4 0 0 471.04 509.81
  Q 472.54 509.20 474.05 509.52
  Q 474.78 509.68 474.82 508.93
  L 475.07 504.70
  Q 475.11 503.99 474.43 504.20
  L 473.84 504.39
  Q 473.25 504.57 473.25 505.18
  L 473.25 508.24
  Q 473.25 508.69 472.84 508.88
  Q 471.71 509.38 471.30 508.18
  Q 471.01 507.31 471.62 506.24
  Q 471.85 505.84 471.51 505.51
  Q 469.64 503.73 467.59 504.83
  A 0.77 0.77 0.0 0 0 467.33 505.97
  Q 468.31 507.31 467.20 508.55
  A 0.40 0.40 0.0 0 0 467.33 509.18
  L 467.99 509.49
  Q 468.75 509.86 468.75 509.01
  L 468.75 506.23"
/>
<path stroke="#7c7879" vector-effect="non-scaling-stroke" d="
  M 478.34 509.76
  L 477.69 504.44
  A 0.11 0.11 0.0 0 0 477.57 504.34
  L 477.52 504.35
  A 2.68 1.22 83.1 0 0 476.63 507.15
  L 476.66 507.37
  A 2.68 1.22 83.1 0 0 478.19 509.89
  L 478.24 509.88
  A 0.11 0.11 0.0 0 0 478.34 509.76"
/>
<path stroke="#7c7879" vector-effect="non-scaling-stroke" d="
  M 481.20 508.01
  A 1.46 1.25 67.6 0 1 482.04 505.45
  Q 483.40 505.92 483.89 507.37
  A 0.42 0.42 0.0 0 0 484.59 507.53
  Q 484.92 507.20 484.73 506.79
  Q 484.19 505.59 483.07 504.53
  Q 482.72 504.20 482.29 504.41
  Q 480.34 505.31 480.01 507.16
  A 1.95 1.95 0.0 0 0 481.32 509.36
  Q 484.49 510.42 483.98 508.50
  Q 483.88 508.10 483.51 508.28
  Q 482.36 508.81 481.20 508.01"
/>
<path stroke="#7c7879" vector-effect="non-scaling-stroke" d="
  M 489.95 508.32
  L 490.35 509.15
  A 0.25 0.25 0.0 0 0 490.81 508.94
  Q 490.05 507.02 491.07 505.29
  A 0.50 0.50 0.0 0 1 492.00 505.52
  L 492.23 509.70
  A 0.32 0.32 0.0 0 0 492.87 509.73
  Q 493.27 507.07 492.59 504.47
  Q 492.39 503.69 491.78 504.21
  L 489.61 506.03
  A 0.36 0.35 -37.2 0 1 489.09 505.96
  L 487.86 504.16
  A 2.46 1.60 -88.1 0 0 485.48 507.55
  Q 486.24 508.97 487.76 509.74
  A 0.74 0.74 0.0 0 0 488.74 509.44
  L 489.40 508.30
  A 0.31 0.31 0.0 0 1 489.95 508.32"
/>
<path stroke="#7c7879" vector-effect="non-scaling-stroke" d="
  M 497.6222 504.8916
  A 0.65 0.65 0.0 0 0 496.9554 504.2589
  L 496.7954 504.2631
  A 0.65 0.65 0.0 0 0 496.1627 504.9299
  L 496.2778 509.3284
  A 0.65 0.65 0.0 0 0 496.9446 509.9611
  L 497.1046 509.9569
  A 0.65 0.65 0.0 0 0 497.7373 509.2901
  L 497.6222 504.8916"
/>
<path stroke="#7c7879" vector-effect="non-scaling-stroke" d="
  M 452.76 508.82
  L 452.46 504.67
  A 0.28 0.28 0.0 0 0 452.16 504.41
  L 451.62 504.45
  A 1.23 0.96 85.9 0 0 450.75 505.75
  L 450.91 508.00
  A 1.23 0.96 85.9 0 0 451.96 509.16
  L 452.50 509.12
  A 0.28 0.28 0.0 0 0 452.76 508.82"
/>
<path stroke="#7c7879" vector-effect="non-scaling-stroke" d="
  M 494.19 508.69
  Q 493.84 509.01 494.17 509.60
  A 0.30 0.30 0.0 0 0 494.74 509.46
  Q 494.78 507.46 494.74 505.25
  Q 494.74 505.04 494.49 504.88
  Q 494.25 504.73 494.25 505.01
  Q 494.26 506.86 494.19 508.69"
/>
<path stroke="#7c7879" vector-effect="non-scaling-stroke" d="
  M 500.92 506.64
  Q 501.39 507.92 500.83 509.08
  Q 500.66 509.44 501.05 509.51
  Q 501.21 509.54 501.35 509.48
  Q 501.55 509.39 501.63 509.08
  Q 502.26 506.78 501.12 504.80
  Q 500.81 504.27 500.41 504.72
  Q 498.71 506.60 499.36 509.23
  Q 499.43 509.51 499.71 509.50
  Q 499.85 509.50 499.99 509.51
  Q 500.29 509.53 500.20 509.24
  Q 499.77 507.94 500.20 506.65
  Q 500.54 505.60 500.92 506.64"
/>
<path stroke="#7c7879" vector-effect="non-scaling-stroke" d="
  M 427.5687 505.1566
  A 0.27 0.27 0.0 0 0 427.2973 504.8880
  L 426.5173 504.8921
  A 0.27 0.27 0.0 0 0 426.2487 505.1635
  L 426.2713 509.4834
  A 0.27 0.27 0.0 0 0 426.5427 509.7520
  L 427.3227 509.7479
  A 0.27 0.27 0.0 0 0 427.5913 509.4765
  L 427.5687 505.1566"
/>
<path stroke="#7c7879" vector-effect="non-scaling-stroke" d="
  M 445.56 504.74
  L 444.59 504.90
  A 0.17 0.17 0.0 0 0 444.45 505.09
  L 445.06 508.86
  A 0.71 0.55 80.9 0 0 445.71 509.48
  L 445.93 509.44
  A 0.71 0.55 80.9 0 0 446.36 508.65
  L 445.76 504.88
  A 0.17 0.17 0.0 0 0 445.56 504.74"
/>
<path stroke="#7c7879" vector-effect="non-scaling-stroke" d="
  M 439.85 508.43
  Q 439.65 508.90 439.87 509.41
  Q 440.05 509.80 440.49 509.76
  A 0.57 0.57 0.0 0 0 440.97 509.01
  Q 440.35 507.18 441.26 505.50
  A 0.37 0.37 0.0 0 0 440.74 505.00
  Q 439.09 505.97 439.85 507.79
  A 0.80 0.80 0.0 0 1 439.85 508.43"
/>
<path stroke="#7c7879" vector-effect="non-scaling-stroke" d="
  M 443.06 505.28
  L 442.21 505.40
  A 0.19 0.19 0.0 0 0 442.05 505.62
  L 442.55 509.07
  A 0.57 0.56 -8.2 0 0 443.19 509.55
  L 443.29 509.53
  A 0.57 0.56 -8.2 0 0 443.78 508.90
  L 443.28 505.44
  A 0.19 0.19 0.0 0 0 443.06 505.28"
/>
<path stroke="#7c7879" vector-effect="non-scaling-stroke" d="
  M 433.74 508.21
  Q 433.81 507.00 434.84 506.33
  A 0.45 0.44 -70.0 0 0 434.47 505.53
  Q 431.95 506.32 432.58 509.17
  Q 432.74 509.89 433.47 509.79
  L 434.80 509.60
  A 0.43 0.42 -48.6 0 0 434.75 508.75
  L 434.25 508.75
  Q 433.70 508.75 433.74 508.21"
/>
<path stroke="#7c7879" vector-effect="non-scaling-stroke" d="
  M 438.25 506.39
  L 438.64 506.57
  A 0.32 0.32 0.0 0 0 439.00 506.06
  Q 438.12 505.15 436.48 505.58
  A 2.12 2.11 39.1 0 0 436.91 509.74
  L 437.30 509.76
  Q 437.85 509.79 437.50 509.36
  Q 436.64 508.30 437.07 506.91
  A 0.85 0.85 0.0 0 1 438.25 506.39"
/>
<path stroke="#7c7879" vector-effect="non-scaling-stroke" d="
  M 417.59 505.97
  Q 416.74 507.57 416.88 509.39
  Q 416.94 510.11 417.57 509.75
  Q 418.23 509.37 417.87 508.99
  Q 417.55 508.65 417.67 508.19
  L 418.22 506.22
  A 0.34 0.34 0.0 0 0 417.59 505.97"
/>
<path stroke="#7c7879" vector-effect="non-scaling-stroke" d="
  M 132.50 440.43
  Q 127.85 450.67 133.34 460.35
  A 0.35 0.34 -56.3 0 0 133.98 460.22
  C 134.60 455.14 135.46 445.24 133.52 440.46
  Q 133.03 439.27 132.50 440.43"
/>
<path stroke="#7c7879" vector-effect="non-scaling-stroke" d="
  M 408.06 507.56
  L 407.82 507.80
  A 0.38 0.38 0.0 0 0 408.01 508.44
  Q 408.85 508.63 409.58 508.09
  A 0.92 0.83 11.2 0 0 408.54 506.70
  Q 408.40 506.77 408.29 507.18
  Q 408.23 507.40 408.06 507.56"
/>
<path stroke="#7c7879" vector-effect="non-scaling-stroke" d="
  M 423.3625 509.0698
  A 1.75 0.66 90.9 0 0 424.0499 507.3304
  A 1.75 0.66 90.9 0 0 423.4175 505.5702
  A 1.75 0.66 90.9 0 0 422.7301 507.3096
  A 1.75 0.66 90.9 0 0 423.3625 509.0698"
/>
<path stroke="#7c7879" vector-effect="non-scaling-stroke" d="
  M 488.6056 508.4762
  A 1.52 1.14 57.1 0 0 488.7372 506.5808
  A 1.52 1.14 57.1 0 0 486.9544 505.9238
  A 1.52 1.14 57.1 0 0 486.8228 507.8192
  A 1.52 1.14 57.1 0 0 488.6056 508.4762"
/>
</g>
<path fill="#f6eff1" d="
  M 0.00 0.00
  L 512.00 0.00
  L 512.00 512.00
  L 0.00 512.00
  L 0.00 0.00
  Z
  M 305.62 80.87
  Q 300.90 68.53 295.25 56.53
  Q 294.99 55.96 294.61 55.80
  A 0.69 0.68 -71.2 0 0 293.68 56.26
  C 286.15 84.45 301.00 119.42 323.93 136.49
  Q 324.34 136.79 324.12 137.25
  Q 318.14 149.99 315.34 163.72
  C 314.33 168.64 313.88 175.17 312.98 180.90
  Q 312.90 181.43 312.40 181.59
  Q 296.14 186.71 286.32 200.53
  A 1.23 1.23 0.0 0 0 286.65 202.27
  C 289.27 203.98 292.14 203.59 295.56 203.10
  C 302.84 202.06 308.15 198.33 313.67 194.65
  Q 314.30 194.22 314.25 194.98
  Q 313.18 210.13 309.45 224.84
  Q 309.34 225.30 308.90 225.49
  C 298.90 229.77 294.93 238.28 291.59 248.41
  Q 291.42 248.94 291.84 249.30
  Q 295.83 252.81 301.22 253.50
  Q 302.63 253.68 302.44 255.09
  C 299.87 274.29 297.20 292.71 286.88 309.11
  Q 282.78 315.61 278.67 322.04
  A 0.62 0.49 -40.3 0 1 277.65 322.07
  L 269.30 290.47
  A 1.10 1.10 0.0 0 0 267.28 290.21
  Q 260.01 302.91 256.71 317.33
  C 254.02 329.07 254.17 338.91 263.15 346.96
  A 2.28 2.27 35.3 0 1 263.63 349.73
  C 256.70 362.52 249.90 379.09 254.89 393.81
  Q 259.45 407.25 273.90 407.59
  C 292.45 408.03 316.80 387.78 322.13 370.28
  Q 322.28 369.79 322.77 369.95
  C 335.82 374.05 346.47 369.76 356.10 360.84
  Q 366.62 351.08 378.32 338.37
  A 0.51 0.51 0.0 0 0 378.14 337.55
  Q 375.81 336.56 372.49 336.74
  Q 351.55 337.81 333.97 346.52
  Q 333.46 346.77 333.42 346.21
  Q 332.49 334.26 333.39 322.31
  Q 333.47 321.22 334.44 320.75
  C 349.95 313.14 365.39 302.95 377.05 290.41
  C 391.86 274.49 401.86 253.72 407.80 232.93
  C 411.70 219.30 412.99 205.22 412.68 191.09
  A 0.38 0.38 0.0 0 1 413.40 190.92
  Q 416.78 198.16 422.00 204.02
  C 424.00 206.27 429.29 209.72 430.11 204.82
  C 432.81 188.71 427.15 184.72 412.55 182.01
  Q 412.03 181.92 411.97 181.39
  Q 408.54 154.33 392.81 132.53
  C 386.20 123.38 378.00 112.86 366.82 109.20
  C 357.87 106.28 350.49 111.49 342.12 115.35
  Q 341.69 115.55 341.31 115.24
  Q 329.44 105.35 323.75 93.25
  C 318.33 81.73 316.38 72.54 312.38 62.09
  A 1.01 1.01 0.0 0 0 310.79 61.67
  C 306.85 64.94 306.02 76.05 305.97 80.80
  A 0.18 0.18 0.0 0 1 305.62 80.87
  Z
  M 103.26 269.88
  A 0.36 0.35 44.5 0 1 103.88 269.88
  C 109.16 279.18 116.29 293.49 116.98 304.28
  Q 117.01 304.80 116.51 304.95
  C 108.16 307.50 107.75 329.34 107.77 336.45
  Q 107.77 336.92 108.24 336.86
  Q 119.70 335.39 123.77 324.79
  Q 123.86 324.56 123.97 324.79
  C 126.32 330.19 129.02 335.94 130.56 341.12
  C 139.30 370.65 130.67 403.30 113.78 428.51
  Q 113.50 428.93 113.96 429.14
  C 117.28 430.62 124.67 426.50 128.98 424.26
  Q 129.46 424.01 129.62 424.53
  Q 130.12 426.17 129.76 426.96
  Q 126.75 433.77 124.46 441.92
  C 121.65 451.90 125.31 462.86 134.83 467.56
  Q 135.33 467.81 135.56 467.30
  Q 137.10 463.82 137.50 460.00
  C 139.80 437.86 141.14 403.33 158.69 386.89
  Q 199.18 348.97 198.20 292.73
  Q 198.19 292.02 198.78 292.42
  C 207.19 297.99 214.38 301.63 224.62 298.94
  A 0.63 0.62 69.8 0 0 225.02 298.06
  C 219.07 285.54 207.81 273.06 194.64 267.83
  Q 194.28 267.69 194.17 267.31
  L 188.55 248.36
  A 0.16 0.16 0.0 0 1 188.80 248.18
  Q 189.08 248.37 189.22 248.69
  Q 189.42 249.15 189.82 249.44
  C 195.96 254.04 200.04 257.52 208.25 255.61
  C 210.85 255.01 223.88 250.96 221.45 246.78
  C 219.61 243.63 217.01 242.82 212.93 241.23
  Q 200.96 236.57 188.97 231.97
  Q 187.01 231.22 182.92 230.97
  A 1.18 1.18 0.0 0 0 182.05 231.28
  Q 180.49 232.72 179.10 230.93
  C 162.22 209.17 142.11 188.64 114.27 182.19
  C 102.58 179.48 87.68 181.36 84.90 195.59
  C 81.13 214.91 88.35 238.95 94.88 257.12
  Q 95.05 257.60 94.74 258.01
  C 83.49 272.77 72.23 293.03 84.71 310.55
  Q 85.82 312.11 88.04 311.69
  A 1.50 1.49 -71.7 0 0 88.79 311.31
  Q 91.83 308.43 92.72 304.18
  C 95.03 293.11 97.93 279.90 103.26 269.88
  Z
  M 409.58 503.01
  L 405.53 509.74
  A 0.25 0.25 0.0 0 0 405.77 510.11
  L 410.26 509.62
  Q 410.83 509.56 410.82 508.99
  L 410.72 503.32
  A 0.62 0.61 60.0 0 0 409.58 503.01
  Z
  M 455.86 509.32
  Q 456.04 509.38 456.22 509.36
  Q 456.75 509.33 456.75 508.80
  L 456.75 503.88
  Q 456.75 503.25 456.12 503.25
  L 455.39 503.25
  Q 454.83 503.25 454.80 503.81
  L 454.50 508.66
  Q 454.49 508.86 454.67 508.94
  Q 454.80 509.00 454.94 509.03
  Q 455.20 509.09 455.86 509.32
  Z
  M 429.31 509.69
  L 430.39 509.76
  A 0.23 0.23 0.0 0 0 430.63 509.54
  L 430.78 507.29
  A 3.47 0.62 -86.3 0 0 430.38 503.79
  L 430.08 503.77
  A 3.47 0.62 -86.3 0 0 429.24 507.19
  L 429.09 509.44
  A 0.23 0.23 0.0 0 0 429.31 509.69
  Z
  M 448.94 509.51
  L 449.06 503.99
  A 0.17 0.17 0.0 0 0 448.90 503.82
  L 448.81 503.81
  A 2.77 1.40 -88.7 0 0 447.34 506.55
  L 447.34 506.87
  A 2.77 1.40 -88.7 0 0 448.67 509.67
  L 448.76 509.67
  A 0.17 0.17 0.0 0 0 448.94 509.51
  Z
  M 460.38 505.89
  A 1.08 1.07 -76.4 0 1 461.45 505.23
  L 462.69 505.33
  A 0.70 0.69 -84.2 0 1 463.33 506.12
  L 462.99 508.68
  A 0.64 0.64 0.0 0 0 463.68 509.40
  L 465.77 509.19
  Q 466.19 509.15 466.03 508.77
  Q 465.53 507.53 466.12 506.15
  A 0.76 0.76 0.0 0 0 465.59 505.11
  L 459.89 503.83
  Q 459.11 503.65 459.09 504.45
  L 459.00 509.24
  Q 458.98 509.94 459.65 509.70
  L 461.84 508.91
  A 0.31 0.31 0.0 0 0 461.73 508.31
  Q 459.37 508.36 460.38 505.89
  Z
  M 413.52 509.91
  L 414.70 509.95
  A 0.22 0.22 0.0 0 0 414.93 509.73
  L 414.93 509.61
  A 5.34 0.74 -88.4 0 0 414.34 504.25
  L 414.20 504.25
  A 5.34 0.74 -88.4 0 0 413.31 509.57
  L 413.31 509.69
  A 0.22 0.22 0.0 0 0 413.52 509.91
  Z
  M 419.6747 510.1000
  A 2.92 0.68 90.3 0 0 420.3700 507.1836
  A 2.92 0.68 90.3 0 0 419.7053 504.2600
  A 2.92 0.68 90.3 0 0 419.0100 507.1764
  A 2.92 0.68 90.3 0 0 419.6747 510.1000
  Z
  M 424.24 504.61
  C 421.87 505.29 421.45 507.16 422.05 509.28
  A 1.48 1.48 0.0 0 0 424.92 508.59
  Q 424.58 506.80 424.79 505.07
  Q 424.87 504.43 424.24 504.61
  Z
  M 468.75 506.23
  A 0.92 0.92 0.0 0 1 470.57 506.06
  Q 470.87 507.65 470.43 509.27
  A 0.46 0.45 -3.4 0 0 471.04 509.81
  Q 472.54 509.20 474.05 509.52
  Q 474.78 509.68 474.82 508.93
  L 475.07 504.70
  Q 475.11 503.99 474.43 504.20
  L 473.84 504.39
  Q 473.25 504.57 473.25 505.18
  L 473.25 508.24
  Q 473.25 508.69 472.84 508.88
  Q 471.71 509.38 471.30 508.18
  Q 471.01 507.31 471.62 506.24
  Q 471.85 505.84 471.51 505.51
  Q 469.64 503.73 467.59 504.83
  A 0.77 0.77 0.0 0 0 467.33 505.97
  Q 468.31 507.31 467.20 508.55
  A 0.40 0.40 0.0 0 0 467.33 509.18
  L 467.99 509.49
  Q 468.75 509.86 468.75 509.01
  L 468.75 506.23
  Z
  M 478.34 509.76
  L 477.69 504.44
  A 0.11 0.11 0.0 0 0 477.57 504.34
  L 477.52 504.35
  A 2.68 1.22 83.1 0 0 476.63 507.15
  L 476.66 507.37
  A 2.68 1.22 83.1 0 0 478.19 509.89
  L 478.24 509.88
  A 0.11 0.11 0.0 0 0 478.34 509.76
  Z
  M 481.20 508.01
  A 1.46 1.25 67.6 0 1 482.04 505.45
  Q 483.40 505.92 483.89 507.37
  A 0.42 0.42 0.0 0 0 484.59 507.53
  Q 484.92 507.20 484.73 506.79
  Q 484.19 505.59 483.07 504.53
  Q 482.72 504.20 482.29 504.41
  Q 480.34 505.31 480.01 507.16
  A 1.95 1.95 0.0 0 0 481.32 509.36
  Q 484.49 510.42 483.98 508.50
  Q 483.88 508.10 483.51 508.28
  Q 482.36 508.81 481.20 508.01
  Z
  M 489.95 508.32
  L 490.35 509.15
  A 0.25 0.25 0.0 0 0 490.81 508.94
  Q 490.05 507.02 491.07 505.29
  A 0.50 0.50 0.0 0 1 492.00 505.52
  L 492.23 509.70
  A 0.32 0.32 0.0 0 0 492.87 509.73
  Q 493.27 507.07 492.59 504.47
  Q 492.39 503.69 491.78 504.21
  L 489.61 506.03
  A 0.36 0.35 -37.2 0 1 489.09 505.96
  L 487.86 504.16
  A 2.46 1.60 -88.1 0 0 485.48 507.55
  Q 486.24 508.97 487.76 509.74
  A 0.74 0.74 0.0 0 0 488.74 509.44
  L 489.40 508.30
  A 0.31 0.31 0.0 0 1 489.95 508.32
  Z
  M 497.6222 504.8916
  A 0.65 0.65 0.0 0 0 496.9554 504.2589
  L 496.7954 504.2631
  A 0.65 0.65 0.0 0 0 496.1627 504.9299
  L 496.2778 509.3284
  A 0.65 0.65 0.0 0 0 496.9446 509.9611
  L 497.1046 509.9569
  A 0.65 0.65 0.0 0 0 497.7373 509.2901
  L 497.6222 504.8916
  Z
  M 452.76 508.82
  L 452.46 504.67
  A 0.28 0.28 0.0 0 0 452.16 504.41
  L 451.62 504.45
  A 1.23 0.96 85.9 0 0 450.75 505.75
  L 450.91 508.00
  A 1.23 0.96 85.9 0 0 451.96 509.16
  L 452.50 509.12
  A 0.28 0.28 0.0 0 0 452.76 508.82
  Z
  M 494.19 508.69
  Q 493.84 509.01 494.17 509.60
  A 0.30 0.30 0.0 0 0 494.74 509.46
  Q 494.78 507.46 494.74 505.25
  Q 494.74 505.04 494.49 504.88
  Q 494.25 504.73 494.25 505.01
  Q 494.26 506.86 494.19 508.69
  Z
  M 500.92 506.64
  Q 501.39 507.92 500.83 509.08
  Q 500.66 509.44 501.05 509.51
  Q 501.21 509.54 501.35 509.48
  Q 501.55 509.39 501.63 509.08
  Q 502.26 506.78 501.12 504.80
  Q 500.81 504.27 500.41 504.72
  Q 498.71 506.60 499.36 509.23
  Q 499.43 509.51 499.71 509.50
  Q 499.85 509.50 499.99 509.51
  Q 500.29 509.53 500.20 509.24
  Q 499.77 507.94 500.20 506.65
  Q 500.54 505.60 500.92 506.64
  Z
  M 427.5687 505.1566
  A 0.27 0.27 0.0 0 0 427.2973 504.8880
  L 426.5173 504.8921
  A 0.27 0.27 0.0 0 0 426.2487 505.1635
  L 426.2713 509.4834
  A 0.27 0.27 0.0 0 0 426.5427 509.7520
  L 427.3227 509.7479
  A 0.27 0.27 0.0 0 0 427.5913 509.4765
  L 427.5687 505.1566
  Z
  M 445.56 504.74
  L 444.59 504.90
  A 0.17 0.17 0.0 0 0 444.45 505.09
  L 445.06 508.86
  A 0.71 0.55 80.9 0 0 445.71 509.48
  L 445.93 509.44
  A 0.71 0.55 80.9 0 0 446.36 508.65
  L 445.76 504.88
  A 0.17 0.17 0.0 0 0 445.56 504.74
  Z
  M 439.85 508.43
  Q 439.65 508.90 439.87 509.41
  Q 440.05 509.80 440.49 509.76
  A 0.57 0.57 0.0 0 0 440.97 509.01
  Q 440.35 507.18 441.26 505.50
  A 0.37 0.37 0.0 0 0 440.74 505.00
  Q 439.09 505.97 439.85 507.79
  A 0.80 0.80 0.0 0 1 439.85 508.43
  Z
  M 443.06 505.28
  L 442.21 505.40
  A 0.19 0.19 0.0 0 0 442.05 505.62
  L 442.55 509.07
  A 0.57 0.56 -8.2 0 0 443.19 509.55
  L 443.29 509.53
  A 0.57 0.56 -8.2 0 0 443.78 508.90
  L 443.28 505.44
  A 0.19 0.19 0.0 0 0 443.06 505.28
  Z
  M 433.74 508.21
  Q 433.81 507.00 434.84 506.33
  A 0.45 0.44 -70.0 0 0 434.47 505.53
  Q 431.95 506.32 432.58 509.17
  Q 432.74 509.89 433.47 509.79
  L 434.80 509.60
  A 0.43 0.42 -48.6 0 0 434.75 508.75
  L 434.25 508.75
  Q 433.70 508.75 433.74 508.21
  Z
  M 438.25 506.39
  L 438.64 506.57
  A 0.32 0.32 0.0 0 0 439.00 506.06
  Q 438.12 505.15 436.48 505.58
  A 2.12 2.11 39.1 0 0 436.91 509.74
  L 437.30 509.76
  Q 437.85 509.79 437.50 509.36
  Q 436.64 508.30 437.07 506.91
  A 0.85 0.85 0.0 0 1 438.25 506.39
  Z
  M 417.59 505.97
  Q 416.74 507.57 416.88 509.39
  Q 416.94 510.11 417.57 509.75
  Q 418.23 509.37 417.87 508.99
  Q 417.55 508.65 417.67 508.19
  L 418.22 506.22
  A 0.34 0.34 0.0 0 0 417.59 505.97
  Z"
/>
<path fill="#010001" d="
  M 305.62 80.87
  A 0.18 0.18 0.0 0 0 305.97 80.80
  C 306.02 76.05 306.85 64.94 310.79 61.67
  A 1.01 1.01 0.0 0 1 312.38 62.09
  C 316.38 72.54 318.33 81.73 323.75 93.25
  Q 329.44 105.35 341.31 115.24
  Q 341.69 115.55 342.12 115.35
  C 350.49 111.49 357.87 106.28 366.82 109.20
  C 378.00 112.86 386.20 123.38 392.81 132.53
  Q 408.54 154.33 411.97 181.39
  Q 412.03 181.92 412.55 182.01
  C 427.15 184.72 432.81 188.71 430.11 204.82
  C 429.29 209.72 424.00 206.27 422.00 204.02
  Q 416.78 198.16 413.40 190.92
  A 0.38 0.38 0.0 0 0 412.68 191.09
  C 412.99 205.22 411.70 219.30 407.80 232.93
  C 401.86 253.72 391.86 274.49 377.05 290.41
  C 365.39 302.95 349.95 313.14 334.44 320.75
  Q 333.47 321.22 333.39 322.31
  Q 332.49 334.26 333.42 346.21
  Q 333.46 346.77 333.97 346.52
  Q 351.55 337.81 372.49 336.74
  Q 375.81 336.56 378.14 337.55
  A 0.51 0.51 0.0 0 1 378.32 338.37
  Q 366.62 351.08 356.10 360.84
  C 346.47 369.76 335.82 374.05 322.77 369.95
  Q 322.28 369.79 322.13 370.28
  C 316.80 387.78 292.45 408.03 273.90 407.59
  Q 259.45 407.25 254.89 393.81
  C 249.90 379.09 256.70 362.52 263.63 349.73
  A 2.28 2.27 35.3 0 0 263.15 346.96
  C 254.17 338.91 254.02 329.07 256.71 317.33
  Q 260.01 302.91 267.28 290.21
  A 1.10 1.10 0.0 0 1 269.30 290.47
  L 277.65 322.07
  A 0.62 0.49 -40.3 0 0 278.67 322.04
  Q 282.78 315.61 286.88 309.11
  C 297.20 292.71 299.87 274.29 302.44 255.09
  Q 302.63 253.68 301.22 253.50
  Q 295.83 252.81 291.84 249.30
  Q 291.42 248.94 291.59 248.41
  C 294.93 238.28 298.90 229.77 308.90 225.49
  Q 309.34 225.30 309.45 224.84
  Q 313.18 210.13 314.25 194.98
  Q 314.30 194.22 313.67 194.65
  C 308.15 198.33 302.84 202.06 295.56 203.10
  C 292.14 203.59 289.27 203.98 286.65 202.27
  A 1.23 1.23 0.0 0 1 286.32 200.53
  Q 296.14 186.71 312.40 181.59
  Q 312.90 181.43 312.98 180.90
  C 313.88 175.17 314.33 168.64 315.34 163.72
  Q 318.14 149.99 324.12 137.25
  Q 324.34 136.79 323.93 136.49
  C 301.00 119.42 286.15 84.45 293.68 56.26
  A 0.69 0.68 -71.2 0 1 294.61 55.80
  Q 294.99 55.96 295.25 56.53
  Q 300.90 68.53 305.62 80.87
  Z"
/>
<path fill="#010001" d="
  M 103.26 269.88
  C 97.93 279.90 95.03 293.11 92.72 304.18
  Q 91.83 308.43 88.79 311.31
  A 1.50 1.49 -71.7 0 1 88.04 311.69
  Q 85.82 312.11 84.71 310.55
  C 72.23 293.03 83.49 272.77 94.74 258.01
  Q 95.05 257.60 94.88 257.12
  C 88.35 238.95 81.13 214.91 84.90 195.59
  C 87.68 181.36 102.58 179.48 114.27 182.19
  C 142.11 188.64 162.22 209.17 179.10 230.93
  Q 180.49 232.72 182.05 231.28
  A 1.18 1.18 0.0 0 1 182.92 230.97
  Q 187.01 231.22 188.97 231.97
  Q 200.96 236.57 212.93 241.23
  C 217.01 242.82 219.61 243.63 221.45 246.78
  C 223.88 250.96 210.85 255.01 208.25 255.61
  C 200.04 257.52 195.96 254.04 189.82 249.44
  Q 189.42 249.15 189.22 248.69
  Q 189.08 248.37 188.80 248.18
  A 0.16 0.16 0.0 0 0 188.55 248.36
  L 194.17 267.31
  Q 194.28 267.69 194.64 267.83
  C 207.81 273.06 219.07 285.54 225.02 298.06
  A 0.63 0.62 69.8 0 1 224.62 298.94
  C 214.38 301.63 207.19 297.99 198.78 292.42
  Q 198.19 292.02 198.20 292.73
  Q 199.18 348.97 158.69 386.89
  C 141.14 403.33 139.80 437.86 137.50 460.00
  Q 137.10 463.82 135.56 467.30
  Q 135.33 467.81 134.83 467.56
  C 125.31 462.86 121.65 451.90 124.46 441.92
  Q 126.75 433.77 129.76 426.96
  Q 130.12 426.17 129.62 424.53
  Q 129.46 424.01 128.98 424.26
  C 124.67 426.50 117.28 430.62 113.96 429.14
  Q 113.50 428.93 113.78 428.51
  C 130.67 403.30 139.30 370.65 130.56 341.12
  C 129.02 335.94 126.32 330.19 123.97 324.79
  Q 123.86 324.56 123.77 324.79
  Q 119.70 335.39 108.24 336.86
  Q 107.77 336.92 107.77 336.45
  C 107.75 329.34 108.16 307.50 116.51 304.95
  Q 117.01 304.80 116.98 304.28
  C 116.29 293.49 109.16 279.18 103.88 269.88
  A 0.36 0.35 44.5 0 0 103.26 269.88
  Z
  M 132.50 440.43
  Q 127.85 450.67 133.34 460.35
  A 0.35 0.34 -56.3 0 0 133.98 460.22
  C 134.60 455.14 135.46 445.24 133.52 440.46
  Q 133.03 439.27 132.50 440.43
  Z"
/>
<path fill="#f6eff1" d="
  M 133.52 440.46
  C 135.46 445.24 134.60 455.14 133.98 460.22
  A 0.35 0.34 -56.3 0 1 133.34 460.35
  Q 127.85 450.67 132.50 440.43
  Q 133.03 439.27 133.52 440.46
  Z"
/>
<path fill="#010001" d="
  M 409.58 503.01
  A 0.62 0.61 60.0 0 1 410.72 503.32
  L 410.82 508.99
  Q 410.83 509.56 410.26 509.62
  L 405.77 510.11
  A 0.25 0.25 0.0 0 1 405.53 509.74
  L 409.58 503.01
  Z
  M 408.06 507.56
  L 407.82 507.80
  A 0.38 0.38 0.0 0 0 408.01 508.44
  Q 408.85 508.63 409.58 508.09
  A 0.92 0.83 11.2 0 0 408.54 506.70
  Q 408.40 506.77 408.29 507.18
  Q 408.23 507.40 408.06 507.56
  Z"
/>
<path fill="#010001" d="
  M 454.94 509.03
  Q 454.80 509.00 454.67 508.94
  Q 454.49 508.86 454.50 508.66
  L 454.80 503.81
  Q 454.83 503.25 455.39 503.25
  L 456.12 503.25
  Q 456.75 503.25 456.75 503.88
  L 456.75 508.80
  Q 456.75 509.33 456.22 509.36
  Q 456.04 509.38 455.86 509.32
  Q 455.20 509.09 454.94 509.03
  Z"
/>
<path fill="#010001" d="
  M 429.31 509.69
  A 0.23 0.23 0.0 0 1 429.09 509.44
  L 429.24 507.19
  A 3.47 0.62 -86.3 0 1 430.08 503.77
  L 430.38 503.79
  A 3.47 0.62 -86.3 0 1 430.78 507.29
  L 430.63 509.54
  A 0.23 0.23 0.0 0 1 430.39 509.76
  L 429.31 509.69
  Z"
/>
<path fill="#010001" d="
  M 448.94 509.51
  A 0.17 0.17 0.0 0 1 448.76 509.67
  L 448.67 509.67
  A 2.77 1.40 -88.7 0 1 447.34 506.87
  L 447.34 506.55
  A 2.77 1.40 -88.7 0 1 448.81 503.81
  L 448.90 503.82
  A 0.17 0.17 0.0 0 1 449.06 503.99
  L 448.94 509.51
  Z"
/>
<path fill="#010001" d="
  M 460.38 505.89
  Q 459.37 508.36 461.73 508.31
  A 0.31 0.31 0.0 0 1 461.84 508.91
  L 459.65 509.70
  Q 458.98 509.94 459.00 509.24
  L 459.09 504.45
  Q 459.11 503.65 459.89 503.83
  L 465.59 505.11
  A 0.76 0.76 0.0 0 1 466.12 506.15
  Q 465.53 507.53 466.03 508.77
  Q 466.19 509.15 465.77 509.19
  L 463.68 509.40
  A 0.64 0.64 0.0 0 1 462.99 508.68
  L 463.33 506.12
  A 0.70 0.69 -84.2 0 0 462.69 505.33
  L 461.45 505.23
  A 1.08 1.07 -76.4 0 0 460.38 505.89
  Z"
/>
<path fill="#010001" d="
  M 413.52 509.91
  A 0.22 0.22 0.0 0 1 413.31 509.69
  L 413.31 509.57
  A 5.34 0.74 -88.4 0 1 414.20 504.25
  L 414.34 504.25
  A 5.34 0.74 -88.4 0 1 414.93 509.61
  L 414.93 509.73
  A 0.22 0.22 0.0 0 1 414.70 509.95
  L 413.52 509.91
  Z"
/>
<ellipse fill="#010001" cx="0.00" cy="0.00" transform="translate(419.69,507.18) rotate(90.3)" rx="2.92" ry="0.68"/>
<path fill="#010001" d="
  M 422.05 509.28
  C 421.45 507.16 421.87 505.29 424.24 504.61
  Q 424.87 504.43 424.79 505.07
  Q 424.58 506.80 424.92 508.59
  A 1.48 1.48 0.0 0 1 422.05 509.28
  Z
  M 423.3625 509.0698
  A 1.75 0.66 90.9 0 0 424.0499 507.3304
  A 1.75 0.66 90.9 0 0 423.4175 505.5702
  A 1.75 0.66 90.9 0 0 422.7301 507.3096
  A 1.75 0.66 90.9 0 0 423.3625 509.0698
  Z"
/>
<path fill="#010001" d="
  M 468.75 506.23
  L 468.75 509.01
  Q 468.75 509.86 467.99 509.49
  L 467.33 509.18
  A 0.40 0.40 0.0 0 1 467.20 508.55
  Q 468.31 507.31 467.33 505.97
  A 0.77 0.77 0.0 0 1 467.59 504.83
  Q 469.64 503.73 471.51 505.51
  Q 471.85 505.84 471.62 506.24
  Q 471.01 507.31 471.30 508.18
  Q 471.71 509.38 472.84 508.88
  Q 473.25 508.69 473.25 508.24
  L 473.25 505.18
  Q 473.25 504.57 473.84 504.39
  L 474.43 504.20
  Q 475.11 503.99 475.07 504.70
  L 474.82 508.93
  Q 474.78 509.68 474.05 509.52
  Q 472.54 509.20 471.04 509.81
  A 0.46 0.45 -3.4 0 1 470.43 509.27
  Q 470.87 507.65 470.57 506.06
  A 0.92 0.92 0.0 0 0 468.75 506.23
  Z"
/>
<path fill="#010001" d="
  M 478.34 509.76
  A 0.11 0.11 0.0 0 1 478.24 509.88
  L 478.19 509.89
  A 2.68 1.22 83.1 0 1 476.66 507.37
  L 476.63 507.15
  A 2.68 1.22 83.1 0 1 477.52 504.35
  L 477.57 504.34
  A 0.11 0.11 0.0 0 1 477.69 504.44
  L 478.34 509.76
  Z"
/>
<path fill="#010001" d="
  M 481.20 508.01
  Q 482.36 508.81 483.51 508.28
  Q 483.88 508.10 483.98 508.50
  Q 484.49 510.42 481.32 509.36
  A 1.95 1.95 0.0 0 1 480.01 507.16
  Q 480.34 505.31 482.29 504.41
  Q 482.72 504.20 483.07 504.53
  Q 484.19 505.59 484.73 506.79
  Q 484.92 507.20 484.59 507.53
  A 0.42 0.42 0.0 0 1 483.89 507.37
  Q 483.40 505.92 482.04 505.45
  A 1.46 1.25 67.6 0 0 481.20 508.01
  Z"
/>
<path fill="#010001" d="
  M 489.40 508.30
  L 488.74 509.44
  A 0.74 0.74 0.0 0 1 487.76 509.74
  Q 486.24 508.97 485.48 507.55
  A 2.46 1.60 -88.1 0 1 487.86 504.16
  L 489.09 505.96
  A 0.36 0.35 -37.2 0 0 489.61 506.03
  L 491.78 504.21
  Q 492.39 503.69 492.59 504.47
  Q 493.27 507.07 492.87 509.73
  A 0.32 0.32 0.0 0 1 492.23 509.70
  L 492.00 505.52
  A 0.50 0.50 0.0 0 0 491.07 505.29
  Q 490.05 507.02 490.81 508.94
  A 0.25 0.25 0.0 0 1 490.35 509.15
  L 489.95 508.32
  A 0.31 0.31 0.0 0 0 489.40 508.30
  Z
  M 488.6056 508.4762
  A 1.52 1.14 57.1 0 0 488.7372 506.5808
  A 1.52 1.14 57.1 0 0 486.9544 505.9238
  A 1.52 1.14 57.1 0 0 486.8228 507.8192
  A 1.52 1.14 57.1 0 0 488.6056 508.4762
  Z"
/>
<rect fill="#010001" x="-0.73" y="-2.85" transform="translate(496.95,507.11) rotate(-1.5)" width="1.46" height="5.70" rx="0.65"/>
<path fill="#010001" d="
  M 452.76 508.82
  A 0.28 0.28 0.0 0 1 452.50 509.12
  L 451.96 509.16
  A 1.23 0.96 85.9 0 1 450.91 508.00
  L 450.75 505.75
  A 1.23 0.96 85.9 0 1 451.62 504.45
  L 452.16 504.41
  A 0.28 0.28 0.0 0 1 452.46 504.67
  L 452.76 508.82
  Z"
/>
<path fill="#010001" d="
  M 494.19 508.69
  Q 494.26 506.86 494.25 505.01
  Q 494.25 504.73 494.49 504.88
  Q 494.74 505.04 494.74 505.25
  Q 494.78 507.46 494.74 509.46
  A 0.30 0.30 0.0 0 1 494.17 509.60
  Q 493.84 509.01 494.19 508.69
  Z"
/>
<path fill="#010001" d="
  M 500.20 506.65
  Q 499.77 507.94 500.20 509.24
  Q 500.29 509.53 499.99 509.51
  Q 499.85 509.50 499.71 509.50
  Q 499.43 509.51 499.36 509.23
  Q 498.71 506.60 500.41 504.72
  Q 500.81 504.27 501.12 504.80
  Q 502.26 506.78 501.63 509.08
  Q 501.55 509.39 501.35 509.48
  Q 501.21 509.54 501.05 509.51
  Q 500.66 509.44 500.83 509.08
  Q 501.39 507.92 500.92 506.64
  Q 500.54 505.60 500.20 506.65
  Z"
/>
<rect fill="#010001" x="-0.66" y="-2.43" transform="translate(426.92,507.32) rotate(-0.3)" width="1.32" height="4.86" rx="0.27"/>
<path fill="#010001" d="
  M 445.56 504.74
  A 0.17 0.17 0.0 0 1 445.76 504.88
  L 446.36 508.65
  A 0.71 0.55 80.9 0 1 445.93 509.44
  L 445.71 509.48
  A 0.71 0.55 80.9 0 1 445.06 508.86
  L 444.45 505.09
  A 0.17 0.17 0.0 0 1 444.59 504.90
  L 445.56 504.74
  Z"
/>
<path fill="#010001" d="
  M 439.85 507.79
  Q 439.09 505.97 440.74 505.00
  A 0.37 0.37 0.0 0 1 441.26 505.50
  Q 440.35 507.18 440.97 509.01
  A 0.57 0.57 0.0 0 1 440.49 509.76
  Q 440.05 509.80 439.87 509.41
  Q 439.65 508.90 439.85 508.43
  A 0.80 0.80 0.0 0 0 439.85 507.79
  Z"
/>
<path fill="#010001" d="
  M 443.06 505.28
  A 0.19 0.19 0.0 0 1 443.28 505.44
  L 443.78 508.90
  A 0.57 0.56 -8.2 0 1 443.29 509.53
  L 443.19 509.55
  A 0.57 0.56 -8.2 0 1 442.55 509.07
  L 442.05 505.62
  A 0.19 0.19 0.0 0 1 442.21 505.40
  L 443.06 505.28
  Z"
/>
<ellipse fill="#f6eff1" cx="0.00" cy="0.00" transform="translate(423.39,507.32) rotate(90.9)" rx="1.75" ry="0.66"/>
<path fill="#010001" d="
  M 434.25 508.75
  L 434.75 508.75
  A 0.43 0.42 -48.6 0 1 434.80 509.60
  L 433.47 509.79
  Q 432.74 509.89 432.58 509.17
  Q 431.95 506.32 434.47 505.53
  A 0.45 0.44 -70.0 0 1 434.84 506.33
  Q 433.81 507.00 433.74 508.21
  Q 433.70 508.75 434.25 508.75
  Z"
/>
<path fill="#010001" d="
  M 438.25 506.39
  A 0.85 0.85 0.0 0 0 437.07 506.91
  Q 436.64 508.30 437.50 509.36
  Q 437.85 509.79 437.30 509.76
  L 436.91 509.74
  A 2.12 2.11 39.1 0 1 436.48 505.58
  Q 438.12 505.15 439.00 506.06
  A 0.32 0.32 0.0 0 1 438.64 506.57
  L 438.25 506.39
  Z"
/>
<path fill="#010001" d="
  M 417.59 505.97
  A 0.34 0.34 0.0 0 1 418.22 506.22
  L 417.67 508.19
  Q 417.55 508.65 417.87 508.99
  Q 418.23 509.37 417.57 509.75
  Q 416.94 510.11 416.88 509.39
  Q 416.74 507.57 417.59 505.97
  Z"
/>
<ellipse fill="#f6eff1" cx="0.00" cy="0.00" transform="translate(487.78,507.20) rotate(57.1)" rx="1.52" ry="1.14"/>
<path fill="#f6eff1" d="
  M 408.29 507.18
  Q 408.40 506.77 408.54 506.70
  A 0.92 0.83 11.2 0 1 409.58 508.09
  Q 408.85 508.63 408.01 508.44
  A 0.38 0.38 0.0 0 1 407.82 507.80
  L 408.06 507.56
  Q 408.23 507.40 408.29 507.18
  Z"
/>
</svg>
