<?xml version="1.0" encoding="UTF-8" standalone="no"?>
<!DOCTYPE svg PUBLIC "-//W3C//DTD SVG 1.1//EN" "http://www.w3.org/Graphics/SVG/1.1/DTD/svg11.dtd">
<svg xmlns="http://www.w3.org/2000/svg" version="1.1" viewBox="0.00 0.00 464.00 300.00">
<g stroke-width="2.00" fill="none" stroke-linecap="butt">
<path stroke="#808080" vector-effect="non-scaling-stroke" d="
  M 138.58 75.37
  L 133.72 75.59"
/>
<path stroke="#808080" vector-effect="non-scaling-stroke" d="
  M 144.91 91.13
  Q 146.72 92.56 147.99 92.16"
/>
<path stroke="#808080" vector-effect="non-scaling-stroke" d="
  M 177.97 87.75
  L 180.80 87.21"
/>
<path stroke="#808080" vector-effect="non-scaling-stroke" d="
  M 183.94 86.69
  L 188.26 86.14"
/>
<path stroke="#808080" vector-effect="non-scaling-stroke" d="
  M 192.27 85.36
  L 193.63 85.53
  A 1.52 1.52 0.0 0 1 194.88 87.52
  Q 191.41 97.92 184.57 106.55
  A 1.26 1.24 -75.2 0 1 183.80 107.01
  C 179.44 107.72 174.17 109.01 169.86 107.79
  C 164.59 106.30 155.51 103.96 150.14 106.02
  Q 149.68 106.20 149.51 106.67
  Q 148.20 110.29 150.04 112.72
  Q 157.82 123.00 159.22 133.97
  Q 161.02 148.06 161.95 162.23
  C 162.46 169.90 162.58 185.36 174.49 182.21
  A 1.17 1.16 -84.8 0 1 175.84 183.83
  C 162.31 212.84 136.03 234.53 109.82 251.59
  C 106.30 253.88 103.56 256.10 101.03 258.95
  A 1.08 1.08 0.0 0 0 101.87 260.74
  C 105.21 260.64 108.29 260.29 111.63 259.35
  C 124.66 255.65 138.60 251.02 149.77 244.22
  Q 167.48 233.44 180.25 216.89
  A 2.24 2.23 31.0 0 1 182.95 216.22
  Q 198.50 223.27 211.68 234.11
  A 1.22 1.22 0.0 0 1 211.65 236.02
  C 194.58 249.28 172.83 257.57 152.63 264.89
  C 149.09 266.18 146.63 267.51 143.92 269.71
  A 1.85 1.85 0.0 0 0 144.44 272.88
  C 147.38 273.97 150.80 274.15 154.22 273.74
  C 181.09 270.54 207.73 265.66 229.59 249.15
  Q 230.02 248.83 230.43 249.18
  Q 242.67 259.63 254.97 270.02
  C 261.13 275.23 268.58 281.06 276.34 283.48
  C 286.07 286.52 296.90 284.21 308.26 280.79
  Q 319.48 277.42 330.52 273.57
  C 333.37 272.57 341.42 269.68 340.93 266.35
  A 1.18 1.17 14.6 0 0 340.48 265.59
  C 335.56 261.98 324.34 260.79 317.00 259.74
  Q 308.79 258.57 291.04 253.62
  Q 268.26 247.27 246.37 234.86
  Q 245.35 234.27 246.08 233.34
  Q 251.11 226.91 256.29 220.03
  C 262.19 212.19 266.35 208.63 274.48 204.27
  C 288.54 196.72 254.76 182.37 251.18 180.56
  A 1.43 1.38 55.5 0 0 250.49 180.42
  Q 242.87 180.96 240.49 182.48
  C 229.29 189.68 215.35 191.95 202.27 192.66
  Q 201.69 192.69 202.16 192.34
  Q 204.76 190.40 206.46 187.68
  C 208.67 184.12 204.31 180.87 202.57 178.58
  A 0.61 0.61 0.0 0 1 202.99 177.61
  C 215.18 176.15 227.71 173.30 238.99 172.78
  Q 242.08 172.63 245.65 174.40
  A 1.30 1.29 -88.7 0 1 246.27 175.05
  C 250.76 185.65 263.20 176.41 266.88 170.54
  Q 268.73 167.58 269.42 162.58
  C 270.44 155.26 270.61 147.94 271.65 140.65
  C 272.96 131.42 273.82 123.99 279.34 116.06
  C 283.03 110.76 285.37 106.80 278.78 102.76
  C 267.12 95.60 256.36 89.57 242.38 94.70
  Q 225.21 100.99 206.70 104.01
  A 0.52 0.52 0.0 0 1 206.11 103.36
  Q 206.25 102.86 206.94 102.44
  Q 212.62 99.01 218.63 96.25
  C 226.16 92.81 225.10 88.51 220.11 83.07
  A 0.44 0.44 0.0 0 1 220.32 82.35
  L 221.55 82.03"
/>
<path stroke="#808080" vector-effect="non-scaling-stroke" d="
  M 228.21 81.45
  L 233.27 81.06"
/>
<path stroke="#808080" vector-effect="non-scaling-stroke" d="
  M 296.36 56.86
  Q 289.14 55.69 281.70 56.91"
/>
<path stroke="#808080" vector-effect="non-scaling-stroke" d="
  M 233.30 151.93
  C 217.32 156.98 199.88 158.94 183.14 157.44
  A 0.59 0.58 2.7 0 0 182.50 158.02
  L 182.50 167.99
  Q 182.50 168.78 183.28 168.63
  Q 200.75 165.43 217.08 162.72
  C 227.28 161.03 232.66 159.94 240.97 161.31
  C 249.05 162.64 248.35 126.59 248.16 121.82
  C 247.69 109.78 242.22 111.10 232.52 112.45
  Q 206.80 116.06 180.90 118.66
  A 0.70 0.69 88.1 0 0 180.28 119.33
  Q 180.15 123.44 181.60 127.31
  A 0.56 0.55 -13.2 0 0 182.19 127.67
  Q 203.23 125.20 223.16 119.11
  C 229.33 117.23 235.10 120.44 239.74 124.57
  Q 240.95 125.64 241.40 126.65
  Q 241.62 127.13 241.34 127.58
  C 237.99 133.06 214.45 135.33 208.08 135.98
  C 200.17 136.79 191.15 136.46 182.64 136.52
  Q 182.13 136.52 182.04 137.03
  Q 181.22 141.77 182.51 146.40
  Q 182.75 147.25 183.63 147.25
  C 195.39 147.26 206.91 145.64 218.11 141.83
  C 225.66 139.27 232.77 139.33 239.02 144.90
  A 2.39 2.39 0.0 0 1 239.25 148.24
  Q 237.16 150.70 233.30 151.93"
/>
<path stroke="#808080" vector-effect="non-scaling-stroke" d="
  M 188.90 206.15
  L 188.47 206.40
  A 0.28 0.28 0.0 0 0 188.58 206.92
  C 201.36 208.27 213.68 215.06 224.40 221.61
  A 1.22 1.22 0.0 0 0 226.00 221.32
  Q 232.71 212.68 238.32 203.32
  Q 239.54 201.29 237.69 200.03
  A 1.77 1.74 56.5 0 0 236.36 199.75
  Q 221.37 202.52 206.01 204.52
  Q 200.81 205.19 192.54 203.73
  C 190.83 203.43 189.85 204.02 189.33 205.61
  Q 189.22 205.96 188.90 206.15"
/>
</g>
<path fill="#ffffff" d="
  M 0.00 0.00
  L 464.00 0.00
  L 464.00 300.00
  L 0.00 300.00
  L 0.00 0.00
  Z
  M 281.70 56.91
  Q 270.70 58.86 247.18 63.41
  Q 207.59 71.05 163.79 74.56
  C 156.07 75.18 146.98 74.78 138.58 75.37
  L 133.72 75.59
  L 130.44 75.78
  A 1.84 1.84 0.0 0 0 129.01 78.62
  C 132.30 83.64 139.18 88.88 144.91 91.13
  Q 146.72 92.56 147.99 92.16
  L 155.72 92.03
  Q 156.23 92.02 156.65 91.75
  C 158.53 90.53 161.00 91.08 162.53 90.82
  Q 167.56 89.98 172.40 88.42
  C 174.34 87.80 176.00 88.18 177.97 87.75
  L 180.80 87.21
  L 183.94 86.69
  L 188.26 86.14
  Q 190.82 86.30 192.27 85.36
  L 193.63 85.53
  A 1.52 1.52 0.0 0 1 194.88 87.52
  Q 191.41 97.92 184.57 106.55
  A 1.26 1.24 -75.2 0 1 183.80 107.01
  C 179.44 107.72 174.17 109.01 169.86 107.79
  C 164.59 106.30 155.51 103.96 150.14 106.02
  Q 149.68 106.20 149.51 106.67
  Q 148.20 110.29 150.04 112.72
  Q 157.82 123.00 159.22 133.97
  Q 161.02 148.06 161.95 162.23
  C 162.46 169.90 162.58 185.36 174.49 182.21
  A 1.17 1.16 -84.8 0 1 175.84 183.83
  C 162.31 212.84 136.03 234.53 109.82 251.59
  C 106.30 253.88 103.56 256.10 101.03 258.95
  A 1.08 1.08 0.0 0 0 101.87 260.74
  C 105.21 260.64 108.29 260.29 111.63 259.35
  C 124.66 255.65 138.60 251.02 149.77 244.22
  Q 167.48 233.44 180.25 216.89
  A 2.24 2.23 31.0 0 1 182.95 216.22
  Q 198.50 223.27 211.68 234.11
  A 1.22 1.22 0.0 0 1 211.65 236.02
  C 194.58 249.28 172.83 257.57 152.63 264.89
  C 149.09 266.18 146.63 267.51 143.92 269.71
  A 1.85 1.85 0.0 0 0 144.44 272.88
  C 147.38 273.97 150.80 274.15 154.22 273.74
  C 181.09 270.54 207.73 265.66 229.59 249.15
  Q 230.02 248.83 230.43 249.18
  Q 242.67 259.63 254.97 270.02
  C 261.13 275.23 268.58 281.06 276.34 283.48
  C 286.07 286.52 296.90 284.21 308.26 280.79
  Q 319.48 277.42 330.52 273.57
  C 333.37 272.57 341.42 269.68 340.93 266.35
  A 1.18 1.17 14.6 0 0 340.48 265.59
  C 335.56 261.98 324.34 260.79 317.00 259.74
  Q 308.79 258.57 291.04 253.62
  Q 268.26 247.27 246.37 234.86
  Q 245.35 234.27 246.08 233.34
  Q 251.11 226.91 256.29 220.03
  C 262.19 212.19 266.35 208.63 274.48 204.27
  C 288.54 196.72 254.76 182.37 251.18 180.56
  A 1.43 1.38 55.5 0 0 250.49 180.42
  Q 242.87 180.96 240.49 182.48
  C 229.29 189.68 215.35 191.95 202.27 192.66
  Q 201.69 192.69 202.16 192.34
  Q 204.76 190.40 206.46 187.68
  C 208.67 184.12 204.31 180.87 202.57 178.58
  A 0.61 0.61 0.0 0 1 202.99 177.61
  C 215.18 176.15 227.71 173.30 238.99 172.78
  Q 242.08 172.63 245.65 174.40
  A 1.30 1.29 -88.7 0 1 246.27 175.05
  C 250.76 185.65 263.20 176.41 266.88 170.54
  Q 268.73 167.58 269.42 162.58
  C 270.44 155.26 270.61 147.94 271.65 140.65
  C 272.96 131.42 273.82 123.99 279.34 116.06
  C 283.03 110.76 285.37 106.80 278.78 102.76
  C 267.12 95.60 256.36 89.57 242.38 94.70
  Q 225.21 100.99 206.70 104.01
  A 0.52 0.52 0.0 0 1 206.11 103.36
  Q 206.25 102.86 206.94 102.44
  Q 212.62 99.01 218.63 96.25
  C 226.16 92.81 225.10 88.51 220.11 83.07
  A 0.44 0.44 0.0 0 1 220.32 82.35
  L 221.55 82.03
  L 228.21 81.45
  L 233.27 81.06
  Q 267.68 78.64 302.25 79.34
  C 304.90 79.40 313.79 77.71 313.72 73.50
  C 313.60 66.67 301.92 58.97 296.36 56.86
  Q 289.14 55.69 281.70 56.91
  Z"
/>
<path fill="#000000" d="
  M 296.36 56.86
  L 281.70 56.91
  Q 289.14 55.69 296.36 56.86
  Z"
/>
<path fill="#000000" d="
  M 138.58 75.37
  Q 136.98 76.62 133.72 75.59
  L 138.58 75.37
  Z"
/>
<path fill="#000000" d="
  M 233.27 81.06
  L 228.21 81.45
  Q 230.23 80.63 233.27 81.06
  Z"
/>
<path fill="#000000" d="
  M 221.55 82.03
  L 220.32 82.35
  A 0.44 0.44 0.0 0 0 220.11 83.07
  C 225.10 88.51 226.16 92.81 218.63 96.25
  Q 212.62 99.01 206.94 102.44
  Q 206.25 102.86 206.11 103.36
  A 0.52 0.52 0.0 0 0 206.70 104.01
  Q 225.21 100.99 242.38 94.70
  C 256.36 89.57 267.12 95.60 278.78 102.76
  C 285.37 106.80 283.03 110.76 279.34 116.06
  C 273.82 123.99 272.96 131.42 271.65 140.65
  C 270.61 147.94 270.44 155.26 269.42 162.58
  Q 268.73 167.58 266.88 170.54
  C 263.20 176.41 250.76 185.65 246.27 175.05
  A 1.30 1.29 -88.7 0 0 245.65 174.40
  Q 242.08 172.63 238.99 172.78
  C 227.71 173.30 215.18 176.15 202.99 177.61
  A 0.61 0.61 0.0 0 0 202.57 178.58
  C 204.31 180.87 208.67 184.12 206.46 187.68
  Q 204.76 190.40 202.16 192.34
  Q 201.69 192.69 202.27 192.66
  C 215.35 191.95 229.29 189.68 240.49 182.48
  Q 242.87 180.96 250.49 180.42
  A 1.43 1.38 55.5 0 1 251.18 180.56
  C 254.76 182.37 288.54 196.72 274.48 204.27
  C 266.35 208.63 262.19 212.19 256.29 220.03
  Q 251.11 226.91 246.08 233.34
  Q 245.35 234.27 246.37 234.86
  Q 268.26 247.27 291.04 253.62
  Q 308.79 258.57 317.00 259.74
  C 324.34 260.79 335.56 261.98 340.48 265.59
  A 1.18 1.17 14.6 0 1 340.93 266.35
  C 341.42 269.68 333.37 272.57 330.52 273.57
  Q 319.48 277.42 308.26 280.79
  C 296.90 284.21 286.07 286.52 276.34 283.48
  C 268.58 281.06 261.13 275.23 254.97 270.02
  Q 242.67 259.63 230.43 249.18
  Q 230.02 248.83 229.59 249.15
  C 207.73 265.66 181.09 270.54 154.22 273.74
  C 150.80 274.15 147.38 273.97 144.44 272.88
  A 1.85 1.85 0.0 0 1 143.92 269.71
  C 146.63 267.51 149.09 266.18 152.63 264.89
  C 172.83 257.57 194.58 249.28 211.65 236.02
  A 1.22 1.22 0.0 0 0 211.68 234.11
  Q 198.50 223.27 182.95 216.22
  A 2.24 2.23 31.0 0 0 180.25 216.89
  Q 167.48 233.44 149.77 244.22
  C 138.60 251.02 124.66 255.65 111.63 259.35
  C 108.29 260.29 105.21 260.64 101.87 260.74
  A 1.08 1.08 0.0 0 1 101.03 258.95
  C 103.56 256.10 106.30 253.88 109.82 251.59
  C 136.03 234.53 162.31 212.84 175.84 183.83
  A 1.17 1.16 -84.8 0 0 174.49 182.21
  C 162.58 185.36 162.46 169.90 161.95 162.23
  Q 161.02 148.06 159.22 133.97
  Q 157.82 123.00 150.04 112.72
  Q 148.20 110.29 149.51 106.67
  Q 149.68 106.20 150.14 106.02
  C 155.51 103.96 164.59 106.30 169.86 107.79
  C 174.17 109.01 179.44 107.72 183.80 107.01
  A 1.26 1.24 -75.2 0 0 184.57 106.55
  Q 191.41 97.92 194.88 87.52
  A 1.52 1.52 0.0 0 0 193.63 85.53
  L 192.27 85.36
  L 198.16 85.02
  Q 198.63 84.99 198.97 84.65
  L 199.35 84.27
  A 1.06 1.05 28.8 0 1 200.33 83.99
  Q 201.50 84.27 202.21 83.43
  Q 202.57 83.02 203.11 83.01
  C 205.67 82.97 207.55 83.18 210.20 82.44
  Q 214.36 81.28 218.51 82.68
  Q 218.92 82.82 219.18 82.48
  Q 219.79 81.69 221.55 82.03
  Z
  M 219.08 94.36
  Q 218.48 93.38 217.88 94.24
  A 0.49 0.48 17.4 0 0 218.28 95.00
  L 218.72 95.00
  A 0.42 0.42 0.0 0 0 219.08 94.36
  Z
  M 186.99 104.32
  L 187.04 104.88
  A 0.42 0.42 0.0 0 0 187.76 105.14
  Q 188.12 104.77 188.01 104.18
  A 0.52 0.52 0.0 0 0 186.99 104.32
  Z
  M 233.30 151.93
  C 217.32 156.98 199.88 158.94 183.14 157.44
  A 0.59 0.58 2.7 0 0 182.50 158.02
  L 182.50 167.99
  Q 182.50 168.78 183.28 168.63
  Q 200.75 165.43 217.08 162.72
  C 227.28 161.03 232.66 159.94 240.97 161.31
  C 249.05 162.64 248.35 126.59 248.16 121.82
  C 247.69 109.78 242.22 111.10 232.52 112.45
  Q 206.80 116.06 180.90 118.66
  A 0.70 0.69 88.1 0 0 180.28 119.33
  Q 180.15 123.44 181.60 127.31
  A 0.56 0.55 -13.2 0 0 182.19 127.67
  Q 203.23 125.20 223.16 119.11
  C 229.33 117.23 235.10 120.44 239.74 124.57
  Q 240.95 125.64 241.40 126.65
  Q 241.62 127.13 241.34 127.58
  C 237.99 133.06 214.45 135.33 208.08 135.98
  C 200.17 136.79 191.15 136.46 182.64 136.52
  Q 182.13 136.52 182.04 137.03
  Q 181.22 141.77 182.51 146.40
  Q 182.75 147.25 183.63 147.25
  C 195.39 147.26 206.91 145.64 218.11 141.83
  C 225.66 139.27 232.77 139.33 239.02 144.90
  A 2.39 2.39 0.0 0 1 239.25 148.24
  Q 237.16 150.70 233.30 151.93
  Z
  M 188.90 206.15
  L 188.47 206.40
  A 0.28 0.28 0.0 0 0 188.58 206.92
  C 201.36 208.27 213.68 215.06 224.40 221.61
  A 1.22 1.22 0.0 0 0 226.00 221.32
  Q 232.71 212.68 238.32 203.32
  Q 239.54 201.29 237.69 200.03
  A 1.77 1.74 56.5 0 0 236.36 199.75
  Q 221.37 202.52 206.01 204.52
  Q 200.81 205.19 192.54 203.73
  C 190.83 203.43 189.85 204.02 189.33 205.61
  Q 189.22 205.96 188.90 206.15
  Z"
/>
<path fill="#000000" d="
  M 188.26 86.14
  L 183.94 86.69
  Q 185.20 85.47 188.26 86.14
  Z"
/>
<path fill="#000000" d="
  M 180.80 87.21
  L 177.97 87.75
  Q 178.67 86.46 180.80 87.21
  Z"
/>
<path fill="#000000" d="
  M 144.91 91.13
  Q 146.20 90.74 147.99 92.16
  Q 146.72 92.56 144.91 91.13
  Z"
/>
<path fill="#ffffff" d="
  M 183.14 157.44
  C 199.88 158.94 217.32 156.98 233.30 151.93
  Q 237.16 150.70 239.25 148.24
  A 2.39 2.39 0.0 0 0 239.02 144.90
  C 232.77 139.33 225.66 139.27 218.11 141.83
  C 206.91 145.64 195.39 147.26 183.63 147.25
  Q 182.75 147.25 182.51 146.40
  Q 181.22 141.77 182.04 137.03
  Q 182.13 136.52 182.64 136.52
  C 191.15 136.46 200.17 136.79 208.08 135.98
  C 214.45 135.33 237.99 133.06 241.34 127.58
  Q 241.62 127.13 241.40 126.65
  Q 240.95 125.64 239.74 124.57
  C 235.10 120.44 229.33 117.23 223.16 119.11
  Q 203.23 125.20 182.19 127.67
  A 0.56 0.55 -13.2 0 1 181.60 127.31
  Q 180.15 123.44 180.28 119.33
  A 0.70 0.69 88.1 0 1 180.90 118.66
  Q 206.80 116.06 232.52 112.45
  C 242.22 111.10 247.69 109.78 248.16 121.82
  C 248.35 126.59 249.05 162.64 240.97 161.31
  C 232.66 159.94 227.28 161.03 217.08 162.72
  Q 200.75 165.43 183.28 168.63
  Q 182.50 168.78 182.50 167.99
  L 182.50 158.02
  A 0.59 0.58 2.7 0 1 183.14 157.44
  Z"
/>
<path fill="#ffffff" d="
  M 189.33 205.61
  C 189.85 204.02 190.83 203.43 192.54 203.73
  Q 200.81 205.19 206.01 204.52
  Q 221.37 202.52 236.36 199.75
  A 1.77 1.74 56.5 0 1 237.69 200.03
  Q 239.54 201.29 238.32 203.32
  Q 232.71 212.68 226.00 221.32
  A 1.22 1.22 0.0 0 1 224.40 221.61
  C 213.68 215.06 201.36 208.27 188.58 206.92
  A 0.28 0.28 0.0 0 1 188.47 206.40
  L 188.90 206.15
  Q 189.22 205.96 189.33 205.61
  Z"
/>
</svg>
